<svg xmlns="http://www.w3.org/2000/svg" xmlns:xlink="http://www.w3.org/1999/xlink" width="500" zoomAndPan="magnify" viewBox="0 0 375 374.999991" height="500" preserveAspectRatio="xMidYMid meet" version="1.0"><defs><g/><clipPath id="0dfafbfeaf"><path d="M 154 38 L 317.734375 38 L 317.734375 110 L 154 110 Z M 154 38 " clip-rule="nonzero"/></clipPath><clipPath id="eccaec5158"><path d="M 65.734375 37.5 L 158 37.5 L 158 110.25 L 65.734375 110.25 Z M 65.734375 37.5 " clip-rule="nonzero"/></clipPath></defs><g clip-path="url(#0dfafbfeaf)"><path fill="#ff5757" d="M 317.734375 109.121094 L 228.722656 38.777344 L 154.324219 38.777344 L 243.339844 109.121094 Z M 317.734375 109.121094 " fill-opacity="1" fill-rule="nonzero"/></g><g clip-path="url(#eccaec5158)"><path fill="#ff5757" d="M 66.988281 110.21875 C 66.667969 110.21875 66.34375 110.078125 66.125 109.804688 C 65.746094 109.328125 65.828125 108.640625 66.300781 108.265625 L 155.3125 37.921875 C 155.792969 37.542969 156.488281 37.625 156.859375 38.097656 C 157.238281 38.574219 157.15625 39.257812 156.683594 39.636719 L 67.675781 109.980469 C 67.472656 110.144531 67.230469 110.21875 66.988281 110.21875 Z M 66.988281 110.21875 " fill-opacity="1" fill-rule="nonzero"/></g><path fill="#ff5757" d="M 136.289062 91.816406 L 151 91.816406 L 151 106.464844 L 136.289062 106.464844 Z M 136.289062 91.816406 " fill-opacity="1" fill-rule="nonzero"/><path fill="#ff5757" d="M 157.648438 91.816406 L 172.363281 91.816406 L 172.363281 106.464844 L 157.648438 106.464844 Z M 157.648438 91.816406 " fill-opacity="1" fill-rule="nonzero"/><path fill="#ff5757" d="M 136.289062 71.511719 L 151 71.511719 L 151 86.160156 L 136.289062 86.160156 Z M 136.289062 71.511719 " fill-opacity="1" fill-rule="nonzero"/><path fill="#ff5757" d="M 157.648438 71.511719 L 172.363281 71.511719 L 172.363281 86.160156 L 157.648438 86.160156 Z M 157.648438 71.511719 " fill-opacity="1" fill-rule="nonzero"/><path fill="#ff5757" d="M 114.824219 71.511719 L 100.113281 82.628906 L 100.113281 49.09375 L 114.824219 49.09375 Z M 114.824219 71.511719 " fill-opacity="1" fill-rule="nonzero"/><path stroke-linecap="round" transform="matrix(0.749966, 0, 0, 0.75, 60.316817, 224.241679)" fill="none" stroke-linejoin="miter" d="M 1.49952 1.500678 L 341.520234 1.500678 " stroke="#ff5757" stroke-width="3" stroke-opacity="1" stroke-miterlimit="4"/><g fill="#ff5757" fill-opacity="1"><g transform="translate(91.163689, 204.405205)"><g><path d="M 25.070312 -13.734375 C 25.070312 -11.65625 23.953125 -10.539062 21.878906 -10.539062 L 17.726562 -10.539062 C 15.648438 -10.539062 14.53125 -11.65625 14.53125 -13.734375 L 14.53125 -19.800781 C 14.53125 -20.601562 14.054688 -21.078125 13.253906 -21.078125 L 5.269531 -21.078125 C 4.390625 -21.078125 3.992188 -20.601562 3.992188 -19.800781 L 3.992188 -11.496094 C 3.992188 -3.992188 7.984375 0 15.488281 0 L 24.433594 0 C 31.859375 0 35.929688 -3.992188 35.929688 -11.496094 L 35.929688 -62.597656 C 35.929688 -63.398438 35.453125 -63.875 34.652344 -63.875 L 26.347656 -63.875 C 25.46875 -63.875 25.070312 -63.398438 25.070312 -62.597656 Z M 25.070312 -13.734375 "/></g></g></g><g fill="#ff5757" fill-opacity="1"><g transform="translate(137.551688, 204.405205)"><g><path d="M 3.992188 -1.277344 C 3.992188 -0.398438 4.390625 0 5.269531 0 L 24.433594 0 C 31.9375 0 35.929688 -3.992188 35.929688 -11.496094 L 35.929688 -52.296875 C 35.929688 -59.804688 31.9375 -63.875 24.433594 -63.875 L 5.269531 -63.875 C 4.390625 -63.875 3.992188 -63.398438 3.992188 -62.597656 Z M 14.851562 -10.539062 L 14.851562 -53.335938 L 22.195312 -53.335938 C 24.273438 -53.335938 25.390625 -52.21875 25.390625 -50.0625 L 25.390625 -13.734375 C 25.390625 -11.578125 24.273438 -10.539062 22.195312 -10.539062 Z M 14.851562 -10.539062 "/></g></g></g><g fill="#ff5757" fill-opacity="1"><g transform="translate(183.939687, 204.405205)"><g><path d="M 37.367188 -63.875 C 36.410156 -63.875 35.851562 -63.398438 35.609375 -62.4375 L 26.75 -22.675781 L 17.886719 -62.4375 C 17.644531 -63.398438 17.085938 -63.875 16.128906 -63.875 L 5.589844 -63.875 C 4.550781 -63.875 3.992188 -63.316406 3.992188 -62.277344 L 3.992188 -1.597656 C 3.992188 -0.558594 4.550781 0 5.589844 0 L 12.933594 0 C 13.972656 0 14.53125 -0.558594 14.53125 -1.597656 L 14.53125 -37.527344 L 15.089844 -37.527344 L 22.996094 -1.4375 C 23.234375 -0.480469 23.792969 0 24.753906 0 L 28.664062 0 C 29.621094 0 30.179688 -0.480469 30.421875 -1.4375 L 38.324219 -37.527344 L 38.882812 -37.527344 L 38.882812 -1.597656 C 38.882812 -0.558594 39.445312 0 40.480469 0 L 47.90625 0 C 48.945312 0 49.503906 -0.558594 49.503906 -1.597656 L 49.503906 -62.277344 C 49.503906 -63.316406 48.945312 -63.875 47.90625 -63.875 Z M 37.367188 -63.875 "/></g></g></g><g fill="#ff5757" fill-opacity="1"><g transform="translate(243.900665, 204.405205)"><g><path d="M 25.070312 -13.734375 C 25.070312 -11.65625 23.953125 -10.539062 21.878906 -10.539062 L 17.726562 -10.539062 C 15.648438 -10.539062 14.53125 -11.65625 14.53125 -13.734375 L 14.53125 -19.800781 C 14.53125 -20.601562 14.054688 -21.078125 13.253906 -21.078125 L 5.269531 -21.078125 C 4.390625 -21.078125 3.992188 -20.601562 3.992188 -19.800781 L 3.992188 -11.496094 C 3.992188 -3.992188 7.984375 0 15.488281 0 L 24.433594 0 C 31.859375 0 35.929688 -3.992188 35.929688 -11.496094 L 35.929688 -62.597656 C 35.929688 -63.398438 35.453125 -63.875 34.652344 -63.875 L 26.347656 -63.875 C 25.46875 -63.875 25.070312 -63.398438 25.070312 -62.597656 Z M 25.070312 -13.734375 "/></g></g></g><g fill="#ff5757" fill-opacity="1"><g transform="translate(85.227152, 259.696612)"><g><path d="M 6.613281 -4.21875 C 7.554688 -4.664062 8.140625 -5.582031 8.140625 -6.855469 C 8.140625 -8.867188 6.878906 -9.722656 5.058594 -9.722656 L 0.867188 -9.722656 L 0.867188 0 L 2.703125 0 L 2.703125 -3.886719 L 4.867188 -3.886719 L 6.410156 0 L 8.359375 0 Z M 4.804688 -8.078125 C 5.773438 -8.078125 6.320312 -7.621094 6.320312 -6.792969 C 6.320312 -5.9375 5.785156 -5.492188 4.804688 -5.492188 L 2.703125 -5.492188 L 2.703125 -8.078125 Z M 4.804688 -8.078125 "/></g></g></g><g fill="#ff5757" fill-opacity="1"><g transform="translate(100.377153, 259.696612)"><g><path d="M 7.351562 0 L 7.351562 -1.644531 L 2.703125 -1.644531 L 2.703125 -4.050781 L 6.867188 -4.050781 L 6.867188 -5.683594 L 2.703125 -5.683594 L 2.703125 -8.078125 L 7.351562 -8.078125 L 7.351562 -9.722656 L 0.867188 -9.722656 L 0.867188 0 Z M 7.351562 0 "/></g></g></g><g fill="#ff5757" fill-opacity="1"><g transform="translate(114.66072, 259.696612)"><g><path d="M 2.011719 0 L 2.664062 -2 L 6.371094 -2 L 7.035156 0 L 8.957031 0 L 5.53125 -9.722656 L 3.515625 -9.722656 L 0.0898438 0 Z M 4.523438 -7.722656 L 5.859375 -3.605469 L 3.183594 -3.605469 Z M 4.523438 -7.722656 "/></g></g></g><g fill="#ff5757" fill-opacity="1"><g transform="translate(130.078312, 259.696612)"><g><path d="M 6.816406 0 L 6.816406 -1.644531 L 2.703125 -1.644531 L 2.703125 -9.722656 L 0.867188 -9.722656 L 0.867188 0 Z M 6.816406 0 "/></g></g></g><g fill="#ff5757" fill-opacity="1"><g transform="translate(143.406238, 259.696612)"><g/></g></g><g fill="#ff5757" fill-opacity="1"><g transform="translate(153.191925, 259.696612)"><g><path d="M 7.351562 0 L 7.351562 -1.644531 L 2.703125 -1.644531 L 2.703125 -4.050781 L 6.867188 -4.050781 L 6.867188 -5.683594 L 2.703125 -5.683594 L 2.703125 -8.078125 L 7.351562 -8.078125 L 7.351562 -9.722656 L 0.867188 -9.722656 L 0.867188 0 Z M 7.351562 0 "/></g></g></g><g fill="#ff5757" fill-opacity="1"><g transform="translate(167.475493, 259.696612)"><g><path d="M 4.726562 0.179688 C 7.019531 0.179688 8.359375 -0.980469 8.359375 -2.816406 C 8.359375 -5.019531 6.433594 -5.453125 4.816406 -5.808594 C 3.632812 -6.078125 2.585938 -6.308594 2.585938 -7.199219 C 2.585938 -7.9375 3.25 -8.332031 4.167969 -8.332031 C 5.160156 -8.332031 5.988281 -7.863281 6.230469 -6.828125 L 8.105469 -6.828125 C 7.796875 -8.933594 6.078125 -9.898438 4.203125 -9.898438 C 2.242188 -9.898438 0.765625 -8.917969 0.765625 -7.046875 C 0.765625 -4.996094 2.574219 -4.601562 4.167969 -4.242188 C 5.402344 -3.976562 6.511719 -3.734375 6.511719 -2.726562 C 6.511719 -1.796875 5.746094 -1.390625 4.738281 -1.390625 C 3.71875 -1.390625 2.664062 -1.769531 2.34375 -3.160156 L 0.445312 -3.160156 C 0.6875 -0.648438 2.855469 0.179688 4.726562 0.179688 Z M 4.726562 0.179688 "/></g></g></g><g fill="#ff5757" fill-opacity="1"><g transform="translate(182.714701, 259.696612)"><g><path d="M 4.929688 0 L 4.929688 -8.078125 L 7.886719 -8.078125 L 7.886719 -9.722656 L 0.128906 -9.722656 L 0.128906 -8.078125 L 3.097656 -8.078125 L 3.097656 0 Z M 4.929688 0 "/></g></g></g><g fill="#ff5757" fill-opacity="1"><g transform="translate(197.112946, 259.696612)"><g><path d="M 2.011719 0 L 2.664062 -2 L 6.371094 -2 L 7.035156 0 L 8.957031 0 L 5.53125 -9.722656 L 3.515625 -9.722656 L 0.0898438 0 Z M 4.523438 -7.722656 L 5.859375 -3.605469 L 3.183594 -3.605469 Z M 4.523438 -7.722656 "/></g></g></g><g fill="#ff5757" fill-opacity="1"><g transform="translate(212.530538, 259.696612)"><g><path d="M 4.929688 0 L 4.929688 -8.078125 L 7.886719 -8.078125 L 7.886719 -9.722656 L 0.128906 -9.722656 L 0.128906 -8.078125 L 3.097656 -8.078125 L 3.097656 0 Z M 4.929688 0 "/></g></g></g><g fill="#ff5757" fill-opacity="1"><g transform="translate(226.928783, 259.696612)"><g><path d="M 7.351562 0 L 7.351562 -1.644531 L 2.703125 -1.644531 L 2.703125 -4.050781 L 6.867188 -4.050781 L 6.867188 -5.683594 L 2.703125 -5.683594 L 2.703125 -8.078125 L 7.351562 -8.078125 L 7.351562 -9.722656 L 0.867188 -9.722656 L 0.867188 0 Z M 7.351562 0 "/></g></g></g><g fill="#ff5757" fill-opacity="1"><g transform="translate(241.21235, 259.696612)"><g/></g></g><g fill="#ff5757" fill-opacity="1"><g transform="translate(250.998037, 259.696612)"><g><path d="M 2.011719 0 L 2.664062 -2 L 6.371094 -2 L 7.035156 0 L 8.957031 0 L 5.53125 -9.722656 L 3.515625 -9.722656 L 0.0898438 0 Z M 4.523438 -7.722656 L 5.859375 -3.605469 L 3.183594 -3.605469 Z M 4.523438 -7.722656 "/></g></g></g><g fill="#ff5757" fill-opacity="1"><g transform="translate(266.41563, 259.696612)"><g><path d="M 2.703125 0 L 2.703125 -3.886719 L 5.058594 -3.886719 C 6.878906 -3.886719 8.140625 -4.980469 8.140625 -6.855469 C 8.140625 -8.867188 6.878906 -9.722656 5.058594 -9.722656 L 0.867188 -9.722656 L 0.867188 0 Z M 2.703125 -8.078125 L 4.804688 -8.078125 C 5.773438 -8.078125 6.320312 -7.621094 6.320312 -6.792969 C 6.320312 -5.9375 5.785156 -5.492188 4.804688 -5.492188 L 2.703125 -5.492188 Z M 2.703125 -8.078125 "/></g></g></g><g fill="#ff5757" fill-opacity="1"><g transform="translate(281.272569, 259.696612)"><g><path d="M 2.703125 0 L 2.703125 -3.886719 L 5.058594 -3.886719 C 6.878906 -3.886719 8.140625 -4.980469 8.140625 -6.855469 C 8.140625 -8.867188 6.878906 -9.722656 5.058594 -9.722656 L 0.867188 -9.722656 L 0.867188 0 Z M 2.703125 -8.078125 L 4.804688 -8.078125 C 5.773438 -8.078125 6.320312 -7.621094 6.320312 -6.792969 C 6.320312 -5.9375 5.785156 -5.492188 4.804688 -5.492188 L 2.703125 -5.492188 Z M 2.703125 -8.078125 "/></g></g></g></svg>