<svg xmlns="http://www.w3.org/2000/svg" xmlns:xlink="http://www.w3.org/1999/xlink" width="500" zoomAndPan="magnify" viewBox="0 0 375 374.999991" height="500" preserveAspectRatio="xMidYMid meet" version="1.0"><defs><g/><clipPath id="c49ed5e810"><path d="M 290.25 4 L 371 4 L 371 84.375 L 290.25 84.375 Z M 290.25 4 " clip-rule="nonzero"/></clipPath><clipPath id="ea3889d669"><path d="M 290.25 9 L 366 9 L 366 84.375 L 290.25 84.375 Z M 290.25 9 " clip-rule="nonzero"/></clipPath><clipPath id="ae9c82732f"><path d="M 290.25 14 L 361 14 L 361 84.375 L 290.25 84.375 Z M 290.25 14 " clip-rule="nonzero"/></clipPath><clipPath id="c53a6629a9"><path d="M 176 4.46875 L 231.457031 4.46875 L 231.457031 29 L 176 29 Z M 176 4.46875 " clip-rule="nonzero"/></clipPath><clipPath id="80fa68bd48"><path d="M 146.707031 4.46875 L 178 4.46875 L 178 29.21875 L 146.707031 29.21875 Z M 146.707031 4.46875 " clip-rule="nonzero"/></clipPath><clipPath id="c9ab5c24e2"><path d="M 4 4 L 84.375 4 L 84.375 84.75 L 4 84.75 Z M 4 4 " clip-rule="nonzero"/></clipPath><clipPath id="7d9ebf8edd"><path d="M 9 9 L 84.375 9 L 84.375 84.75 L 9 84.75 Z M 9 9 " clip-rule="nonzero"/></clipPath><clipPath id="57ccdd23c1"><path d="M 14 14 L 84.375 14 L 84.375 84.75 L 14 84.75 Z M 14 14 " clip-rule="nonzero"/></clipPath></defs><rect x="-37.5" width="450" fill="#ffffff" y="-37.499999" height="449.999989" fill-opacity="1"/><rect x="-37.5" width="450" fill="#ffffff" y="-37.499999" height="449.999989" fill-opacity="1"/><rect x="-37.5" width="450" fill="#ffffff" y="-37.499999" height="449.999989" fill-opacity="1"/><g clip-path="url(#c49ed5e810)"><path fill="#fb6444" d="M 370.039062 84.167969 L 370.039062 4.789062 C 370.039062 4.675781 369.945312 4.582031 369.832031 4.582031 L 290.453125 4.582031 C 290.339844 4.582031 290.246094 4.675781 290.246094 4.789062 C 290.246094 4.902344 290.339844 4.996094 290.453125 4.996094 L 369.625 4.996094 C 369.625 4.996094 369.625 84.167969 369.625 84.167969 C 369.625 84.28125 369.714844 84.375 369.832031 84.375 C 369.945312 84.375 370.039062 84.28125 370.039062 84.167969 Z M 370.039062 84.167969 " fill-opacity="1" fill-rule="evenodd"/></g><g clip-path="url(#ea3889d669)"><path fill="#fb6444" d="M 365.078125 84.167969 L 365.078125 19.675781 C 365.078125 19.5625 364.984375 19.472656 364.871094 19.472656 C 364.871094 19.472656 356.574219 19.472656 355.148438 19.472656 C 355.148438 19.472656 355.148438 9.75 355.148438 9.75 C 355.148438 9.636719 355.058594 9.542969 354.941406 9.542969 L 290.453125 9.542969 C 290.339844 9.542969 290.246094 9.636719 290.246094 9.75 C 290.246094 9.863281 290.339844 9.957031 290.453125 9.957031 L 354.734375 9.957031 C 354.734375 11.382812 354.734375 19.675781 354.734375 19.675781 C 354.734375 19.792969 354.828125 19.882812 354.941406 19.882812 L 364.664062 19.882812 C 364.664062 40.238281 364.664062 84.167969 364.664062 84.167969 C 364.664062 84.28125 364.753906 84.375 364.871094 84.375 C 364.984375 84.375 365.078125 84.28125 365.078125 84.167969 Z M 365.078125 84.167969 " fill-opacity="1" fill-rule="evenodd"/></g><g clip-path="url(#ae9c82732f)"><path fill="#fb6444" d="M 360.113281 84.167969 L 360.113281 29.410156 C 360.113281 29.355469 360.09375 29.304688 360.054688 29.265625 L 345.355469 14.566406 C 345.316406 14.527344 345.265625 14.503906 345.210938 14.503906 L 290.453125 14.503906 C 290.339844 14.503906 290.246094 14.597656 290.246094 14.710938 C 290.246094 14.824219 290.339844 14.917969 290.453125 14.917969 L 345.125 14.917969 C 345.125 14.917969 359.703125 29.496094 359.703125 29.496094 C 359.703125 49.890625 359.703125 84.167969 359.703125 84.167969 C 359.703125 84.28125 359.792969 84.375 359.910156 84.375 C 360.023438 84.375 360.113281 84.28125 360.113281 84.167969 Z M 360.113281 84.167969 " fill-opacity="1" fill-rule="evenodd"/></g><path fill="#fb6444" d="M 357.222656 17.191406 C 357.222656 17.304688 357.3125 17.398438 357.429688 17.398438 L 367.351562 17.398438 C 367.464844 17.398438 367.558594 17.304688 367.558594 17.191406 L 367.558594 7.269531 C 367.558594 7.15625 367.464844 7.0625 367.351562 7.0625 L 357.429688 7.0625 C 357.3125 7.0625 357.222656 7.15625 357.222656 7.269531 Z M 357.632812 16.984375 L 357.632812 7.476562 C 357.632812 7.476562 367.144531 7.476562 367.144531 7.476562 C 367.144531 7.476562 367.144531 16.984375 367.144531 16.984375 Z M 357.632812 16.984375 " fill-opacity="1" fill-rule="evenodd"/><path fill="#fb6444" d="M 362.183594 12.230469 C 362.183594 12.34375 362.273438 12.4375 362.390625 12.4375 L 372.3125 12.4375 C 372.425781 12.4375 372.519531 12.34375 372.519531 12.230469 L 372.519531 2.308594 C 372.519531 2.195312 372.425781 2.101562 372.3125 2.101562 L 362.390625 2.101562 C 362.273438 2.101562 362.183594 2.195312 362.183594 2.308594 Z M 362.597656 12.023438 L 362.597656 2.515625 C 362.597656 2.515625 370.699219 2.515625 372.105469 2.515625 C 372.105469 2.515625 372.105469 10.617188 372.105469 12.023438 Z M 362.597656 12.023438 " fill-opacity="1" fill-rule="evenodd"/><path fill="#fb6444" d="M 364.664062 9.75 C 364.664062 9.863281 364.753906 9.957031 364.871094 9.957031 L 374.792969 9.957031 C 374.90625 9.957031 375 9.863281 375 9.75 L 375 -0.171875 C 375 -0.285156 374.90625 -0.378906 374.792969 -0.378906 L 364.871094 -0.378906 C 364.753906 -0.378906 364.664062 -0.285156 364.664062 -0.171875 Z M 365.078125 9.542969 L 365.078125 0.0351562 C 365.078125 0.0351562 374.585938 0.0351562 374.585938 0.0351562 C 374.585938 0.0351562 374.585938 9.542969 374.585938 9.542969 Z M 365.078125 9.542969 " fill-opacity="1" fill-rule="evenodd"/><path fill="#fb6444" d="M 359.703125 14.710938 C 359.703125 14.824219 359.792969 14.917969 359.910156 14.917969 L 364.871094 14.917969 C 364.984375 14.917969 365.078125 14.824219 365.078125 14.710938 L 365.078125 9.75 C 365.078125 9.636719 364.984375 9.542969 364.871094 9.542969 L 359.910156 9.542969 C 359.792969 9.542969 359.703125 9.636719 359.703125 9.75 Z M 360.117188 14.503906 L 360.117188 9.957031 C 360.117188 9.957031 364.664062 9.957031 364.664062 9.957031 C 364.664062 9.957031 364.664062 14.503906 364.664062 14.503906 C 364.664062 14.503906 360.117188 14.503906 360.117188 14.503906 Z M 360.117188 14.503906 " fill-opacity="1" fill-rule="evenodd"/><path fill="#fb6444" d="M 364.664062 9.75 C 364.664062 9.863281 364.753906 9.957031 364.871094 9.957031 L 369.832031 9.957031 C 369.945312 9.957031 370.039062 9.863281 370.039062 9.75 L 370.039062 4.789062 C 370.039062 4.675781 369.945312 4.582031 369.832031 4.582031 L 364.871094 4.582031 C 364.753906 4.582031 364.664062 4.675781 364.664062 4.789062 Z M 365.078125 9.542969 L 365.078125 4.996094 C 365.078125 4.996094 369.625 4.996094 369.625 4.996094 C 369.625 4.996094 369.625 9.542969 369.625 9.542969 C 369.625 9.542969 365.078125 9.542969 365.078125 9.542969 Z M 365.078125 9.542969 " fill-opacity="1" fill-rule="evenodd"/><path fill="#fb6444" d="M 364.871094 39.722656 C 367.722656 39.722656 370.039062 37.40625 370.039062 34.554688 C 370.039062 31.703125 367.722656 29.386719 364.871094 29.386719 C 362.015625 29.386719 359.703125 31.703125 359.703125 34.554688 C 359.703125 37.40625 362.015625 39.722656 364.871094 39.722656 Z M 364.871094 39.308594 C 362.246094 39.308594 360.117188 37.179688 360.117188 34.554688 C 360.117188 31.933594 362.246094 29.800781 364.871094 29.800781 C 367.492188 29.800781 369.625 31.933594 369.625 34.554688 C 369.625 37.179688 367.492188 39.308594 364.871094 39.308594 Z M 364.871094 39.308594 " fill-opacity="1" fill-rule="evenodd"/><path fill="#fb6444" d="M 364.871094 54.605469 C 367.722656 54.605469 370.039062 52.292969 370.039062 49.4375 C 370.039062 46.585938 367.722656 44.269531 364.871094 44.269531 C 362.015625 44.269531 359.703125 46.585938 359.703125 49.4375 C 359.703125 52.292969 362.015625 54.605469 364.871094 54.605469 Z M 364.871094 54.195312 C 362.246094 54.195312 360.117188 52.0625 360.117188 49.4375 C 360.117188 46.816406 362.246094 44.683594 364.871094 44.683594 C 367.492188 44.683594 369.625 46.816406 369.625 49.4375 C 369.625 52.0625 367.492188 54.195312 364.871094 54.195312 Z M 364.871094 54.195312 " fill-opacity="1" fill-rule="evenodd"/><path fill="#fb6444" d="M 364.871094 37.242188 C 366.351562 37.242188 367.554688 36.039062 367.554688 34.554688 C 367.554688 33.074219 366.351562 31.867188 364.871094 31.867188 C 363.386719 31.867188 362.183594 33.074219 362.183594 34.554688 C 362.183594 36.039062 363.386719 37.242188 364.871094 37.242188 Z M 364.871094 36.828125 C 363.613281 36.828125 362.59375 35.8125 362.59375 34.554688 C 362.59375 33.300781 363.613281 32.28125 364.871094 32.28125 C 366.125 32.28125 367.144531 33.300781 367.144531 34.554688 C 367.144531 35.8125 366.125 36.828125 364.871094 36.828125 Z M 364.871094 36.828125 " fill-opacity="1" fill-rule="evenodd"/><path fill="#fb6444" d="M 364.871094 52.125 C 366.351562 52.125 367.554688 50.921875 367.554688 49.4375 C 367.554688 47.957031 366.351562 46.75 364.871094 46.75 C 363.386719 46.75 362.183594 47.957031 362.183594 49.4375 C 362.183594 50.921875 363.386719 52.125 364.871094 52.125 Z M 364.871094 51.714844 C 363.613281 51.714844 362.59375 50.695312 362.59375 49.4375 C 362.59375 48.183594 363.613281 47.164062 364.871094 47.164062 C 366.125 47.164062 367.144531 48.183594 367.144531 49.4375 C 367.144531 50.695312 366.125 51.714844 364.871094 51.714844 Z M 364.871094 51.714844 " fill-opacity="1" fill-rule="evenodd"/><path fill="#fb6444" d="M 340.0625 12.4375 C 341.546875 12.4375 342.75 11.234375 342.75 9.75 C 342.75 8.265625 341.546875 7.0625 340.0625 7.0625 C 338.582031 7.0625 337.375 8.265625 337.375 9.75 C 337.375 11.234375 338.582031 12.4375 340.0625 12.4375 Z M 340.0625 12.023438 C 338.808594 12.023438 337.789062 11.003906 337.789062 9.75 C 337.789062 8.496094 338.808594 7.476562 340.0625 7.476562 C 341.320312 7.476562 342.335938 8.496094 342.335938 9.75 C 342.335938 11.003906 341.320312 12.023438 340.0625 12.023438 Z M 340.0625 12.023438 " fill-opacity="1" fill-rule="evenodd"/><path fill="#fb6444" d="M 325.179688 12.4375 C 326.664062 12.4375 327.867188 11.234375 327.867188 9.75 C 327.867188 8.265625 326.664062 7.0625 325.179688 7.0625 C 323.699219 7.0625 322.492188 8.265625 322.492188 9.75 C 322.492188 11.234375 323.699219 12.4375 325.179688 12.4375 Z M 325.179688 12.023438 C 323.925781 12.023438 322.90625 11.003906 322.90625 9.75 C 322.90625 8.496094 323.925781 7.476562 325.179688 7.476562 C 326.4375 7.476562 327.453125 8.496094 327.453125 9.75 C 327.453125 11.003906 326.4375 12.023438 325.179688 12.023438 Z M 325.179688 12.023438 " fill-opacity="1" fill-rule="evenodd"/><path fill="#fb6444" d="M 340.0625 14.917969 C 342.917969 14.917969 345.230469 12.601562 345.230469 9.75 C 345.230469 6.898438 342.917969 4.582031 340.0625 4.582031 C 337.210938 4.582031 334.894531 6.898438 334.894531 9.75 C 334.894531 12.601562 337.210938 14.917969 340.0625 14.917969 Z M 340.0625 14.503906 C 337.441406 14.503906 335.308594 12.375 335.308594 9.75 C 335.308594 7.125 337.441406 4.996094 340.0625 4.996094 C 342.6875 4.996094 344.820312 7.125 344.820312 9.75 C 344.820312 12.375 342.6875 14.503906 340.0625 14.503906 Z M 340.0625 14.503906 " fill-opacity="1" fill-rule="evenodd"/><path fill="#fb6444" d="M 325.179688 14.917969 C 328.03125 14.917969 330.347656 12.601562 330.347656 9.75 C 330.347656 6.898438 328.03125 4.582031 325.179688 4.582031 C 322.328125 4.582031 320.011719 6.898438 320.011719 9.75 C 320.011719 12.601562 322.328125 14.917969 325.179688 14.917969 Z M 325.179688 14.503906 C 322.558594 14.503906 320.425781 12.375 320.425781 9.75 C 320.425781 7.125 322.558594 4.996094 325.179688 4.996094 C 327.804688 4.996094 329.933594 7.125 329.933594 9.75 C 329.933594 12.375 327.804688 14.503906 325.179688 14.503906 Z M 325.179688 14.503906 " fill-opacity="1" fill-rule="evenodd"/><g clip-path="url(#c53a6629a9)"><path fill="#ff5757" d="M 231.457031 28.835938 L 201.519531 4.90625 L 176.5 4.90625 L 206.4375 28.835938 Z M 231.457031 28.835938 " fill-opacity="1" fill-rule="nonzero"/></g><g clip-path="url(#80fa68bd48)"><path fill="#ff5757" d="M 147.128906 29.207031 C 147.019531 29.207031 146.910156 29.160156 146.835938 29.066406 C 146.710938 28.90625 146.738281 28.671875 146.894531 28.542969 L 176.832031 4.613281 C 176.992188 4.484375 177.226562 4.511719 177.351562 4.671875 C 177.480469 4.835938 177.453125 5.066406 177.292969 5.195312 L 147.359375 29.125 C 147.289062 29.183594 147.210938 29.207031 147.128906 29.207031 Z M 147.128906 29.207031 " fill-opacity="1" fill-rule="nonzero"/></g><path fill="#ff5757" d="M 170.433594 22.949219 L 175.382812 22.949219 L 175.382812 27.929688 L 170.433594 27.929688 Z M 170.433594 22.949219 " fill-opacity="1" fill-rule="nonzero"/><path fill="#ff5757" d="M 177.617188 22.949219 L 182.566406 22.949219 L 182.566406 27.929688 L 177.617188 27.929688 Z M 177.617188 22.949219 " fill-opacity="1" fill-rule="nonzero"/><path fill="#ff5757" d="M 170.433594 16.039062 L 175.382812 16.039062 L 175.382812 21.023438 L 170.433594 21.023438 Z M 170.433594 16.039062 " fill-opacity="1" fill-rule="nonzero"/><path fill="#ff5757" d="M 177.617188 16.039062 L 182.566406 16.039062 L 182.566406 21.023438 L 177.617188 21.023438 Z M 177.617188 16.039062 " fill-opacity="1" fill-rule="nonzero"/><path fill="#ff5757" d="M 163.214844 16.039062 L 158.265625 19.824219 L 158.265625 8.414062 L 163.214844 8.414062 Z M 163.214844 16.039062 " fill-opacity="1" fill-rule="nonzero"/><path stroke-linecap="round" transform="matrix(0.750612, 0, 0, 0.75, 144.890621, 74.22671)" fill="none" stroke-linejoin="miter" d="M 0.499598 0.499803 L 114.422284 0.499803 " stroke="#ff5757" stroke-width="1" stroke-opacity="1" stroke-miterlimit="4"/><g fill="#ff5757" fill-opacity="1"><g transform="translate(155.225041, 60.386105)"><g><path d="M 8.398438 -4.601562 C 8.398438 -3.90625 8.023438 -3.53125 7.328125 -3.53125 L 5.9375 -3.53125 C 5.242188 -3.53125 4.867188 -3.90625 4.867188 -4.601562 L 4.867188 -6.632812 C 4.867188 -6.902344 4.707031 -7.0625 4.441406 -7.0625 L 1.765625 -7.0625 C 1.472656 -7.0625 1.335938 -6.902344 1.335938 -6.632812 L 1.335938 -3.851562 C 1.335938 -1.335938 2.675781 0 5.191406 0 L 8.183594 0 C 10.671875 0 12.039062 -1.335938 12.039062 -3.851562 L 12.039062 -20.972656 C 12.039062 -21.238281 11.878906 -21.398438 11.609375 -21.398438 L 8.828125 -21.398438 C 8.535156 -21.398438 8.398438 -21.238281 8.398438 -20.972656 Z M 8.398438 -4.601562 "/></g></g></g><g fill="#ff5757" fill-opacity="1"><g transform="translate(170.766118, 60.386105)"><g><path d="M 1.335938 -0.429688 C 1.335938 -0.132812 1.472656 0 1.765625 0 L 8.183594 0 C 10.699219 0 12.039062 -1.335938 12.039062 -3.851562 L 12.039062 -17.519531 C 12.039062 -20.035156 10.699219 -21.398438 8.183594 -21.398438 L 1.765625 -21.398438 C 1.472656 -21.398438 1.335938 -21.238281 1.335938 -20.972656 Z M 4.976562 -3.53125 L 4.976562 -17.867188 L 7.4375 -17.867188 C 8.132812 -17.867188 8.507812 -17.496094 8.507812 -16.773438 L 8.507812 -4.601562 C 8.507812 -3.878906 8.132812 -3.53125 7.4375 -3.53125 Z M 4.976562 -3.53125 "/></g></g></g><g fill="#ff5757" fill-opacity="1"><g transform="translate(186.307195, 60.386105)"><g><path d="M 12.519531 -21.398438 C 12.199219 -21.398438 12.011719 -21.238281 11.929688 -20.917969 L 8.960938 -7.597656 L 5.992188 -20.917969 C 5.910156 -21.238281 5.722656 -21.398438 5.402344 -21.398438 L 1.871094 -21.398438 C 1.523438 -21.398438 1.335938 -21.210938 1.335938 -20.863281 L 1.335938 -0.535156 C 1.335938 -0.1875 1.523438 0 1.871094 0 L 4.332031 0 C 4.679688 0 4.867188 -0.1875 4.867188 -0.535156 L 4.867188 -12.574219 L 5.054688 -12.574219 L 7.703125 -0.480469 C 7.785156 -0.160156 7.972656 0 8.292969 0 L 9.601562 0 C 9.925781 0 10.113281 -0.160156 10.191406 -0.480469 L 12.839844 -12.574219 L 13.027344 -12.574219 L 13.027344 -0.535156 C 13.027344 -0.1875 13.214844 0 13.5625 0 L 16.050781 0 C 16.398438 0 16.585938 -0.1875 16.585938 -0.535156 L 16.585938 -20.863281 C 16.585938 -21.210938 16.398438 -21.398438 16.050781 -21.398438 Z M 12.519531 -21.398438 "/></g></g></g><g fill="#ff5757" fill-opacity="1"><g transform="translate(206.395541, 60.386105)"><g><path d="M 8.398438 -4.601562 C 8.398438 -3.90625 8.023438 -3.53125 7.328125 -3.53125 L 5.9375 -3.53125 C 5.242188 -3.53125 4.867188 -3.90625 4.867188 -4.601562 L 4.867188 -6.632812 C 4.867188 -6.902344 4.707031 -7.0625 4.441406 -7.0625 L 1.765625 -7.0625 C 1.472656 -7.0625 1.335938 -6.902344 1.335938 -6.632812 L 1.335938 -3.851562 C 1.335938 -1.335938 2.675781 0 5.191406 0 L 8.183594 0 C 10.671875 0 12.039062 -1.335938 12.039062 -3.851562 L 12.039062 -20.972656 C 12.039062 -21.238281 11.878906 -21.398438 11.609375 -21.398438 L 8.828125 -21.398438 C 8.535156 -21.398438 8.398438 -21.238281 8.398438 -20.972656 Z M 8.398438 -4.601562 "/></g></g></g><g fill="#ff5757" fill-opacity="1"><g transform="translate(153.236166, 78.91003)"><g><path d="M 2.214844 -1.414062 C 2.53125 -1.5625 2.726562 -1.871094 2.726562 -2.296875 C 2.726562 -2.972656 2.304688 -3.257812 1.695312 -3.257812 L 0.289062 -3.257812 L 0.289062 0 L 0.90625 0 L 0.90625 -1.300781 L 1.628906 -1.300781 L 2.148438 0 L 2.800781 0 Z M 1.609375 -2.707031 C 1.933594 -2.707031 2.117188 -2.554688 2.117188 -2.273438 C 2.117188 -1.988281 1.9375 -1.839844 1.609375 -1.839844 L 0.90625 -1.839844 L 0.90625 -2.707031 Z M 1.609375 -2.707031 "/></g></g></g><g fill="#ff5757" fill-opacity="1"><g transform="translate(158.311775, 78.91003)"><g><path d="M 2.464844 0 L 2.464844 -0.550781 L 0.90625 -0.550781 L 0.90625 -1.359375 L 2.300781 -1.359375 L 2.300781 -1.902344 L 0.90625 -1.902344 L 0.90625 -2.707031 L 2.464844 -2.707031 L 2.464844 -3.257812 L 0.289062 -3.257812 L 0.289062 0 Z M 2.464844 0 "/></g></g></g><g fill="#ff5757" fill-opacity="1"><g transform="translate(163.097108, 78.91003)"><g><path d="M 0.675781 0 L 0.890625 -0.671875 L 2.132812 -0.671875 L 2.355469 0 L 3 0 L 1.851562 -3.257812 L 1.179688 -3.257812 L 0.03125 0 Z M 1.515625 -2.585938 L 1.964844 -1.207031 L 1.066406 -1.207031 Z M 1.515625 -2.585938 "/></g></g></g><g fill="#ff5757" fill-opacity="1"><g transform="translate(168.262366, 78.91003)"><g><path d="M 2.285156 0 L 2.285156 -0.550781 L 0.90625 -0.550781 L 0.90625 -3.257812 L 0.289062 -3.257812 L 0.289062 0 Z M 2.285156 0 "/></g></g></g><g fill="#ff5757" fill-opacity="1"><g transform="translate(172.727537, 78.91003)"><g/></g></g><g fill="#ff5757" fill-opacity="1"><g transform="translate(176.005974, 78.91003)"><g><path d="M 2.464844 0 L 2.464844 -0.550781 L 0.90625 -0.550781 L 0.90625 -1.359375 L 2.300781 -1.359375 L 2.300781 -1.902344 L 0.90625 -1.902344 L 0.90625 -2.707031 L 2.464844 -2.707031 L 2.464844 -3.257812 L 0.289062 -3.257812 L 0.289062 0 Z M 2.464844 0 "/></g></g></g><g fill="#ff5757" fill-opacity="1"><g transform="translate(180.791307, 78.91003)"><g><path d="M 1.582031 0.0585938 C 2.351562 0.0585938 2.800781 -0.328125 2.800781 -0.945312 C 2.800781 -1.683594 2.15625 -1.828125 1.613281 -1.945312 C 1.214844 -2.035156 0.867188 -2.113281 0.867188 -2.410156 C 0.867188 -2.660156 1.089844 -2.792969 1.394531 -2.792969 C 1.730469 -2.792969 2.007812 -2.632812 2.085938 -2.289062 L 2.714844 -2.289062 C 2.613281 -2.992188 2.035156 -3.316406 1.410156 -3.316406 C 0.75 -3.316406 0.257812 -2.988281 0.257812 -2.359375 C 0.257812 -1.671875 0.863281 -1.542969 1.394531 -1.421875 C 1.808594 -1.332031 2.179688 -1.25 2.179688 -0.914062 C 2.179688 -0.601562 1.925781 -0.464844 1.589844 -0.464844 C 1.246094 -0.464844 0.890625 -0.59375 0.785156 -1.058594 L 0.148438 -1.058594 C 0.230469 -0.21875 0.957031 0.0585938 1.582031 0.0585938 Z M 1.582031 0.0585938 "/></g></g></g><g fill="#ff5757" fill-opacity="1"><g transform="translate(185.896802, 78.91003)"><g><path d="M 1.652344 0 L 1.652344 -2.707031 L 2.640625 -2.707031 L 2.640625 -3.257812 L 0.0429688 -3.257812 L 0.0429688 -2.707031 L 1.039062 -2.707031 L 1.039062 0 Z M 1.652344 0 "/></g></g></g><g fill="#ff5757" fill-opacity="1"><g transform="translate(190.720555, 78.91003)"><g><path d="M 0.675781 0 L 0.890625 -0.671875 L 2.132812 -0.671875 L 2.355469 0 L 3 0 L 1.851562 -3.257812 L 1.179688 -3.257812 L 0.03125 0 Z M 1.515625 -2.585938 L 1.964844 -1.207031 L 1.066406 -1.207031 Z M 1.515625 -2.585938 "/></g></g></g><g fill="#ff5757" fill-opacity="1"><g transform="translate(195.885813, 78.91003)"><g><path d="M 1.652344 0 L 1.652344 -2.707031 L 2.640625 -2.707031 L 2.640625 -3.257812 L 0.0429688 -3.257812 L 0.0429688 -2.707031 L 1.039062 -2.707031 L 1.039062 0 Z M 1.652344 0 "/></g></g></g><g fill="#ff5757" fill-opacity="1"><g transform="translate(200.709566, 78.91003)"><g><path d="M 2.464844 0 L 2.464844 -0.550781 L 0.90625 -0.550781 L 0.90625 -1.359375 L 2.300781 -1.359375 L 2.300781 -1.902344 L 0.90625 -1.902344 L 0.90625 -2.707031 L 2.464844 -2.707031 L 2.464844 -3.257812 L 0.289062 -3.257812 L 0.289062 0 Z M 2.464844 0 "/></g></g></g><g fill="#ff5757" fill-opacity="1"><g transform="translate(205.494899, 78.91003)"><g/></g></g><g fill="#ff5757" fill-opacity="1"><g transform="translate(208.773336, 78.91003)"><g><path d="M 0.675781 0 L 0.890625 -0.671875 L 2.132812 -0.671875 L 2.355469 0 L 3 0 L 1.851562 -3.257812 L 1.179688 -3.257812 L 0.03125 0 Z M 1.515625 -2.585938 L 1.964844 -1.207031 L 1.066406 -1.207031 Z M 1.515625 -2.585938 "/></g></g></g><g fill="#ff5757" fill-opacity="1"><g transform="translate(213.938594, 78.91003)"><g><path d="M 0.90625 0 L 0.90625 -1.300781 L 1.695312 -1.300781 C 2.304688 -1.300781 2.726562 -1.667969 2.726562 -2.296875 C 2.726562 -2.972656 2.304688 -3.257812 1.695312 -3.257812 L 0.289062 -3.257812 L 0.289062 0 Z M 0.90625 -2.707031 L 1.609375 -2.707031 C 1.933594 -2.707031 2.117188 -2.554688 2.117188 -2.273438 C 2.117188 -1.988281 1.9375 -1.839844 1.609375 -1.839844 L 0.90625 -1.839844 Z M 0.90625 -2.707031 "/></g></g></g><g fill="#ff5757" fill-opacity="1"><g transform="translate(218.916021, 78.91003)"><g><path d="M 0.90625 0 L 0.90625 -1.300781 L 1.695312 -1.300781 C 2.304688 -1.300781 2.726562 -1.667969 2.726562 -2.296875 C 2.726562 -2.972656 2.304688 -3.257812 1.695312 -3.257812 L 0.289062 -3.257812 L 0.289062 0 Z M 0.90625 -2.707031 L 1.609375 -2.707031 C 1.933594 -2.707031 2.117188 -2.554688 2.117188 -2.273438 C 2.117188 -1.988281 1.9375 -1.839844 1.609375 -1.839844 L 0.90625 -1.839844 Z M 0.90625 -2.707031 "/></g></g></g><g clip-path="url(#c9ab5c24e2)"><path fill="#fb6444" d="M 84.167969 4.960938 L 4.789062 4.960938 C 4.675781 4.960938 4.582031 5.054688 4.582031 5.167969 L 4.582031 84.546875 C 4.582031 84.660156 4.675781 84.753906 4.789062 84.753906 C 4.902344 84.753906 4.996094 84.660156 4.996094 84.546875 L 4.996094 5.375 C 4.996094 5.375 84.167969 5.375 84.167969 5.375 C 84.28125 5.375 84.375 5.285156 84.375 5.167969 C 84.375 5.054688 84.28125 4.960938 84.167969 4.960938 Z M 84.167969 4.960938 " fill-opacity="1" fill-rule="evenodd"/></g><g clip-path="url(#7d9ebf8edd)"><path fill="#fb6444" d="M 84.167969 9.921875 L 19.675781 9.921875 C 19.5625 9.921875 19.472656 10.015625 19.472656 10.128906 C 19.472656 10.128906 19.472656 18.425781 19.472656 19.851562 C 19.472656 19.851562 9.75 19.851562 9.75 19.851562 C 9.636719 19.851562 9.542969 19.941406 9.542969 20.058594 L 9.542969 84.546875 C 9.542969 84.660156 9.636719 84.753906 9.75 84.753906 C 9.863281 84.753906 9.957031 84.660156 9.957031 84.546875 L 9.957031 20.265625 C 11.382812 20.265625 19.675781 20.265625 19.675781 20.265625 C 19.792969 20.265625 19.882812 20.171875 19.882812 20.058594 L 19.882812 10.335938 C 40.238281 10.335938 84.167969 10.335938 84.167969 10.335938 C 84.28125 10.335938 84.375 10.246094 84.375 10.128906 C 84.375 10.015625 84.28125 9.921875 84.167969 9.921875 Z M 84.167969 9.921875 " fill-opacity="1" fill-rule="evenodd"/></g><g clip-path="url(#57ccdd23c1)"><path fill="#fb6444" d="M 84.167969 14.886719 L 29.410156 14.886719 C 29.355469 14.886719 29.304688 14.90625 29.265625 14.945312 L 14.566406 29.644531 C 14.527344 29.683594 14.503906 29.734375 14.503906 29.789062 L 14.503906 84.546875 C 14.503906 84.660156 14.597656 84.753906 14.710938 84.753906 C 14.824219 84.753906 14.917969 84.660156 14.917969 84.546875 L 14.917969 29.875 C 14.917969 29.875 29.496094 15.296875 29.496094 15.296875 C 49.890625 15.296875 84.167969 15.296875 84.167969 15.296875 C 84.28125 15.296875 84.375 15.207031 84.375 15.089844 C 84.375 14.976562 84.28125 14.886719 84.167969 14.886719 Z M 84.167969 14.886719 " fill-opacity="1" fill-rule="evenodd"/></g><path fill="#fb6444" d="M 17.191406 17.777344 C 17.304688 17.777344 17.398438 17.6875 17.398438 17.570312 L 17.398438 7.648438 C 17.398438 7.535156 17.304688 7.441406 17.191406 7.441406 L 7.269531 7.441406 C 7.15625 7.441406 7.0625 7.535156 7.0625 7.648438 L 7.0625 17.570312 C 7.0625 17.6875 7.15625 17.777344 7.269531 17.777344 Z M 16.984375 17.367188 L 7.476562 17.367188 C 7.476562 17.367188 7.476562 7.855469 7.476562 7.855469 C 7.476562 7.855469 16.984375 7.855469 16.984375 7.855469 Z M 16.984375 17.367188 " fill-opacity="1" fill-rule="evenodd"/><path fill="#fb6444" d="M 12.230469 12.816406 C 12.34375 12.816406 12.4375 12.726562 12.4375 12.609375 L 12.4375 2.6875 C 12.4375 2.574219 12.34375 2.480469 12.230469 2.480469 L 2.308594 2.480469 C 2.195312 2.480469 2.101562 2.574219 2.101562 2.6875 L 2.101562 12.609375 C 2.101562 12.726562 2.195312 12.816406 2.308594 12.816406 Z M 12.023438 12.402344 L 2.515625 12.402344 C 2.515625 12.402344 2.515625 4.300781 2.515625 2.894531 C 2.515625 2.894531 10.617188 2.894531 12.023438 2.894531 Z M 12.023438 12.402344 " fill-opacity="1" fill-rule="evenodd"/><path fill="#fb6444" d="M 9.75 10.335938 C 9.863281 10.335938 9.957031 10.246094 9.957031 10.128906 L 9.957031 0.207031 C 9.957031 0.09375 9.863281 0 9.75 0 L -0.171875 0 C -0.285156 0 -0.378906 0.09375 -0.378906 0.207031 L -0.378906 10.128906 C -0.378906 10.246094 -0.285156 10.335938 -0.171875 10.335938 Z M 9.542969 9.921875 L 0.0351562 9.921875 C 0.0351562 9.921875 0.0351562 0.414062 0.0351562 0.414062 C 0.0351562 0.414062 9.542969 0.414062 9.542969 0.414062 Z M 9.542969 9.921875 " fill-opacity="1" fill-rule="evenodd"/><path fill="#fb6444" d="M 14.710938 15.296875 C 14.824219 15.296875 14.917969 15.207031 14.917969 15.089844 L 14.917969 10.128906 C 14.917969 10.015625 14.824219 9.921875 14.710938 9.921875 L 9.75 9.921875 C 9.636719 9.921875 9.542969 10.015625 9.542969 10.128906 L 9.542969 15.089844 C 9.542969 15.207031 9.636719 15.296875 9.75 15.296875 Z M 14.503906 14.882812 L 9.957031 14.882812 C 9.957031 14.882812 9.957031 10.335938 9.957031 10.335938 C 9.957031 10.335938 14.503906 10.335938 14.503906 10.335938 C 14.503906 10.335938 14.503906 14.882812 14.503906 14.882812 Z M 14.503906 14.882812 " fill-opacity="1" fill-rule="evenodd"/><path fill="#fb6444" d="M 9.75 10.335938 C 9.863281 10.335938 9.957031 10.246094 9.957031 10.128906 L 9.957031 5.167969 C 9.957031 5.054688 9.863281 4.960938 9.75 4.960938 L 4.789062 4.960938 C 4.675781 4.960938 4.582031 5.054688 4.582031 5.167969 L 4.582031 10.128906 C 4.582031 10.246094 4.675781 10.335938 4.789062 10.335938 Z M 9.542969 9.921875 L 4.996094 9.921875 C 4.996094 9.921875 4.996094 5.375 4.996094 5.375 C 4.996094 5.375 9.542969 5.375 9.542969 5.375 C 9.542969 5.375 9.542969 9.921875 9.542969 9.921875 Z M 9.542969 9.921875 " fill-opacity="1" fill-rule="evenodd"/><path fill="#fb6444" d="M 39.722656 10.128906 C 39.722656 7.277344 37.40625 4.960938 34.554688 4.960938 C 31.703125 4.960938 29.386719 7.277344 29.386719 10.128906 C 29.386719 12.984375 31.703125 15.296875 34.554688 15.296875 C 37.40625 15.296875 39.722656 12.984375 39.722656 10.128906 Z M 39.308594 10.128906 C 39.308594 12.753906 37.179688 14.882812 34.554688 14.882812 C 31.933594 14.882812 29.800781 12.753906 29.800781 10.128906 C 29.800781 7.507812 31.933594 5.375 34.554688 5.375 C 37.179688 5.375 39.308594 7.507812 39.308594 10.128906 Z M 39.308594 10.128906 " fill-opacity="1" fill-rule="evenodd"/><path fill="#fb6444" d="M 54.605469 10.128906 C 54.605469 7.277344 52.292969 4.960938 49.4375 4.960938 C 46.585938 4.960938 44.269531 7.277344 44.269531 10.128906 C 44.269531 12.984375 46.585938 15.296875 49.4375 15.296875 C 52.292969 15.296875 54.605469 12.984375 54.605469 10.128906 Z M 54.195312 10.128906 C 54.195312 12.753906 52.0625 14.882812 49.4375 14.882812 C 46.816406 14.882812 44.683594 12.753906 44.683594 10.128906 C 44.683594 7.507812 46.816406 5.375 49.4375 5.375 C 52.0625 5.375 54.195312 7.507812 54.195312 10.128906 Z M 54.195312 10.128906 " fill-opacity="1" fill-rule="evenodd"/><path fill="#fb6444" d="M 37.242188 10.128906 C 37.242188 8.648438 36.039062 7.445312 34.554688 7.445312 C 33.074219 7.445312 31.867188 8.648438 31.867188 10.128906 C 31.867188 11.613281 33.074219 12.816406 34.554688 12.816406 C 36.039062 12.816406 37.242188 11.613281 37.242188 10.128906 Z M 36.828125 10.128906 C 36.828125 11.386719 35.8125 12.40625 34.554688 12.40625 C 33.300781 12.40625 32.28125 11.386719 32.28125 10.128906 C 32.28125 8.875 33.300781 7.855469 34.554688 7.855469 C 35.8125 7.855469 36.828125 8.875 36.828125 10.128906 Z M 36.828125 10.128906 " fill-opacity="1" fill-rule="evenodd"/><path fill="#fb6444" d="M 52.125 10.128906 C 52.125 8.648438 50.921875 7.445312 49.4375 7.445312 C 47.957031 7.445312 46.75 8.648438 46.75 10.128906 C 46.75 11.613281 47.957031 12.816406 49.4375 12.816406 C 50.921875 12.816406 52.125 11.613281 52.125 10.128906 Z M 51.714844 10.128906 C 51.714844 11.386719 50.695312 12.40625 49.4375 12.40625 C 48.183594 12.40625 47.164062 11.386719 47.164062 10.128906 C 47.164062 8.875 48.183594 7.855469 49.4375 7.855469 C 50.695312 7.855469 51.714844 8.875 51.714844 10.128906 Z M 51.714844 10.128906 " fill-opacity="1" fill-rule="evenodd"/><path fill="#fb6444" d="M 12.4375 34.9375 C 12.4375 33.453125 11.234375 32.25 9.75 32.25 C 8.265625 32.25 7.0625 33.453125 7.0625 34.9375 C 7.0625 36.417969 8.265625 37.625 9.75 37.625 C 11.234375 37.625 12.4375 36.417969 12.4375 34.9375 Z M 12.023438 34.9375 C 12.023438 36.191406 11.003906 37.210938 9.75 37.210938 C 8.496094 37.210938 7.476562 36.191406 7.476562 34.9375 C 7.476562 33.679688 8.496094 32.664062 9.75 32.664062 C 11.003906 32.664062 12.023438 33.679688 12.023438 34.9375 Z M 12.023438 34.9375 " fill-opacity="1" fill-rule="evenodd"/><path fill="#fb6444" d="M 12.4375 49.820312 C 12.4375 48.335938 11.234375 47.132812 9.75 47.132812 C 8.265625 47.132812 7.0625 48.335938 7.0625 49.820312 C 7.0625 51.300781 8.265625 52.507812 9.75 52.507812 C 11.234375 52.507812 12.4375 51.300781 12.4375 49.820312 Z M 12.023438 49.820312 C 12.023438 51.074219 11.003906 52.09375 9.75 52.09375 C 8.496094 52.09375 7.476562 51.074219 7.476562 49.820312 C 7.476562 48.5625 8.496094 47.546875 9.75 47.546875 C 11.003906 47.546875 12.023438 48.5625 12.023438 49.820312 Z M 12.023438 49.820312 " fill-opacity="1" fill-rule="evenodd"/><path fill="#fb6444" d="M 14.917969 34.9375 C 14.917969 32.082031 12.601562 29.769531 9.75 29.769531 C 6.898438 29.769531 4.582031 32.082031 4.582031 34.9375 C 4.582031 37.789062 6.898438 40.105469 9.75 40.105469 C 12.601562 40.105469 14.917969 37.789062 14.917969 34.9375 Z M 14.503906 34.9375 C 14.503906 37.558594 12.375 39.691406 9.75 39.691406 C 7.125 39.691406 4.996094 37.558594 4.996094 34.9375 C 4.996094 32.3125 7.125 30.179688 9.75 30.179688 C 12.375 30.179688 14.503906 32.3125 14.503906 34.9375 Z M 14.503906 34.9375 " fill-opacity="1" fill-rule="evenodd"/><path fill="#fb6444" d="M 14.917969 49.820312 C 14.917969 46.96875 12.601562 44.652344 9.75 44.652344 C 6.898438 44.652344 4.582031 46.96875 4.582031 49.820312 C 4.582031 52.671875 6.898438 54.988281 9.75 54.988281 C 12.601562 54.988281 14.917969 52.671875 14.917969 49.820312 Z M 14.503906 49.820312 C 14.503906 52.441406 12.375 54.574219 9.75 54.574219 C 7.125 54.574219 4.996094 52.441406 4.996094 49.820312 C 4.996094 47.195312 7.125 45.066406 9.75 45.066406 C 12.375 45.066406 14.503906 47.195312 14.503906 49.820312 Z M 14.503906 49.820312 " fill-opacity="1" fill-rule="evenodd"/></svg>