<svg xmlns="http://www.w3.org/2000/svg" xmlns:xlink="http://www.w3.org/1999/xlink" width="1920" zoomAndPan="magnify" viewBox="0 0 1440 809.999993" height="1080" preserveAspectRatio="xMidYMid meet" version="1.0"><defs><g/><clipPath id="ec0405d89f"><path d="M 1116 18 L 1422 18 L 1422 324 L 1116 324 Z M 1116 18 " clip-rule="nonzero"/></clipPath><clipPath id="7f8d1dab1a"><path d="M 1116 37 L 1403 37 L 1403 324 L 1116 324 Z M 1116 37 " clip-rule="nonzero"/></clipPath><clipPath id="89e5048266"><path d="M 1116 56 L 1384 56 L 1384 324 L 1116 324 Z M 1116 56 " clip-rule="nonzero"/></clipPath><clipPath id="3574f85fd0"><path d="M 18 18 L 324 18 L 324 324 L 18 324 Z M 18 18 " clip-rule="nonzero"/></clipPath><clipPath id="d0fabc1557"><path d="M 37 37 L 324 37 L 324 324 L 37 324 Z M 37 37 " clip-rule="nonzero"/></clipPath><clipPath id="99279431ef"><path d="M 56 56 L 324 56 L 324 324 L 56 324 Z M 56 56 " clip-rule="nonzero"/></clipPath><clipPath id="fbf48d001f"><path d="M 677 44 L 887.351562 44 L 887.351562 135 L 677 135 Z M 677 44 " clip-rule="nonzero"/></clipPath><clipPath id="2f87c7f19d"><path d="M 563.351562 42.546875 L 681 42.546875 L 681 136.296875 L 563.351562 136.296875 Z M 563.351562 42.546875 " clip-rule="nonzero"/></clipPath></defs><rect x="-144" width="1728" fill="#ffffff" y="-80.999999" height="971.999992" fill-opacity="1"/><rect x="-144" width="1728" fill="#ffffff" y="-80.999999" height="971.999992" fill-opacity="1"/><rect x="-144" width="1728" fill="#243343" y="-80.999999" height="971.999992" fill-opacity="1"/><g clip-path="url(#ec0405d89f)"><path fill="#fb6444" d="M 1421.027344 323.203125 L 1421.027344 19.746094 C 1421.027344 19.308594 1420.671875 18.953125 1420.238281 18.953125 L 1116.777344 18.953125 C 1116.339844 18.953125 1115.988281 19.308594 1115.988281 19.746094 C 1115.988281 20.179688 1116.339844 20.535156 1116.777344 20.535156 L 1419.445312 20.535156 C 1419.445312 20.535156 1419.445312 323.203125 1419.445312 323.203125 C 1419.445312 323.640625 1419.800781 323.992188 1420.238281 323.992188 C 1420.671875 323.992188 1421.027344 323.640625 1421.027344 323.203125 Z M 1421.027344 323.203125 " fill-opacity="1" fill-rule="evenodd"/></g><g clip-path="url(#7f8d1dab1a)"><path fill="#fb6444" d="M 1402.0625 323.203125 L 1402.0625 76.660156 C 1402.0625 76.222656 1401.707031 75.871094 1401.269531 75.871094 C 1401.269531 75.871094 1369.554688 75.871094 1364.109375 75.871094 C 1364.109375 75.871094 1364.109375 38.710938 1364.109375 38.710938 C 1364.109375 38.273438 1363.757812 37.921875 1363.320312 37.921875 L 1116.777344 37.921875 C 1116.339844 37.921875 1115.988281 38.273438 1115.988281 38.710938 C 1115.988281 39.148438 1116.339844 39.5 1116.777344 39.5 L 1362.53125 39.5 C 1362.53125 44.945312 1362.53125 76.660156 1362.53125 76.660156 C 1362.53125 77.097656 1362.882812 77.449219 1363.320312 77.449219 L 1400.480469 77.449219 C 1400.480469 155.269531 1400.480469 323.203125 1400.480469 323.203125 C 1400.480469 323.640625 1400.835938 323.992188 1401.269531 323.992188 C 1401.707031 323.992188 1402.0625 323.640625 1402.0625 323.203125 Z M 1402.0625 323.203125 " fill-opacity="1" fill-rule="evenodd"/></g><g clip-path="url(#89e5048266)"><path fill="#fb6444" d="M 1383.09375 323.203125 L 1383.09375 113.871094 C 1383.09375 113.660156 1383.011719 113.457031 1382.863281 113.308594 L 1326.671875 57.117188 C 1326.523438 56.96875 1326.320312 56.886719 1326.113281 56.886719 L 1116.777344 56.886719 C 1116.339844 56.886719 1115.988281 57.242188 1115.988281 57.675781 C 1115.988281 58.113281 1116.339844 58.46875 1116.777344 58.46875 L 1325.785156 58.46875 C 1325.785156 58.46875 1381.515625 114.195312 1381.515625 114.195312 C 1381.515625 192.164062 1381.515625 323.203125 1381.515625 323.203125 C 1381.515625 323.640625 1381.867188 323.992188 1382.304688 323.992188 C 1382.742188 323.992188 1383.09375 323.640625 1383.09375 323.203125 Z M 1383.09375 323.203125 " fill-opacity="1" fill-rule="evenodd"/></g><path fill="#fb6444" d="M 1372.03125 67.160156 C 1372.03125 67.59375 1372.386719 67.949219 1372.820312 67.949219 L 1410.753906 67.949219 C 1411.191406 67.949219 1411.542969 67.59375 1411.542969 67.160156 L 1411.542969 29.226562 C 1411.542969 28.789062 1411.191406 28.4375 1410.753906 28.4375 L 1372.820312 28.4375 C 1372.386719 28.4375 1372.03125 28.789062 1372.03125 29.226562 Z M 1373.613281 66.367188 L 1373.613281 30.019531 C 1373.613281 30.019531 1409.964844 30.019531 1409.964844 30.019531 C 1409.964844 30.019531 1409.964844 66.367188 1409.964844 66.367188 Z M 1373.613281 66.367188 " fill-opacity="1" fill-rule="evenodd"/><path fill="#fb6444" d="M 1390.996094 48.191406 C 1390.996094 48.628906 1391.351562 48.984375 1391.789062 48.984375 L 1429.71875 48.984375 C 1430.15625 48.984375 1430.511719 48.628906 1430.511719 48.191406 L 1430.511719 10.261719 C 1430.511719 9.824219 1430.15625 9.46875 1429.71875 9.46875 L 1391.789062 9.46875 C 1391.351562 9.46875 1390.996094 9.824219 1390.996094 10.261719 Z M 1392.578125 47.402344 L 1392.578125 11.050781 C 1392.578125 11.050781 1423.554688 11.050781 1428.929688 11.050781 C 1428.929688 11.050781 1428.929688 42.027344 1428.929688 47.402344 Z M 1392.578125 47.402344 " fill-opacity="1" fill-rule="evenodd"/><path fill="#fb6444" d="M 1400.480469 38.710938 C 1400.480469 39.144531 1400.835938 39.5 1401.269531 39.5 L 1439.203125 39.5 C 1439.640625 39.5 1439.996094 39.144531 1439.996094 38.710938 L 1439.996094 0.777344 C 1439.996094 0.339844 1439.640625 -0.0117188 1439.203125 -0.0117188 L 1401.269531 -0.0117188 C 1400.835938 -0.0117188 1400.480469 0.339844 1400.480469 0.777344 Z M 1402.0625 37.917969 L 1402.0625 1.570312 C 1402.0625 1.570312 1438.414062 1.570312 1438.414062 1.570312 C 1438.414062 1.570312 1438.414062 37.917969 1438.414062 37.917969 Z M 1402.0625 37.917969 " fill-opacity="1" fill-rule="evenodd"/><path fill="#fb6444" d="M 1381.515625 57.675781 C 1381.515625 58.113281 1381.867188 58.46875 1382.304688 58.46875 L 1401.269531 58.46875 C 1401.707031 58.46875 1402.0625 58.113281 1402.0625 57.675781 L 1402.0625 38.710938 C 1402.0625 38.273438 1401.707031 37.917969 1401.269531 37.917969 L 1382.304688 37.917969 C 1381.867188 37.917969 1381.515625 38.273438 1381.515625 38.710938 Z M 1383.09375 56.886719 L 1383.09375 39.5 C 1383.09375 39.5 1400.480469 39.5 1400.480469 39.5 C 1400.480469 39.5 1400.480469 56.886719 1400.480469 56.886719 C 1400.480469 56.886719 1383.09375 56.886719 1383.09375 56.886719 Z M 1383.09375 56.886719 " fill-opacity="1" fill-rule="evenodd"/><path fill="#fb6444" d="M 1400.480469 38.710938 C 1400.480469 39.144531 1400.835938 39.5 1401.269531 39.5 L 1420.238281 39.5 C 1420.671875 39.5 1421.027344 39.144531 1421.027344 38.710938 L 1421.027344 19.742188 C 1421.027344 19.308594 1420.671875 18.953125 1420.238281 18.953125 L 1401.269531 18.953125 C 1400.835938 18.953125 1400.480469 19.308594 1400.480469 19.742188 Z M 1402.0625 37.917969 L 1402.0625 20.535156 C 1402.0625 20.535156 1419.445312 20.535156 1419.445312 20.535156 C 1419.445312 20.535156 1419.445312 37.917969 1419.445312 37.917969 C 1419.445312 37.917969 1402.0625 37.917969 1402.0625 37.917969 Z M 1402.0625 37.917969 " fill-opacity="1" fill-rule="evenodd"/><path fill="#fb6444" d="M 1401.269531 153.296875 C 1412.175781 153.296875 1421.027344 144.445312 1421.027344 133.542969 C 1421.027344 122.636719 1412.175781 113.785156 1401.269531 113.785156 C 1390.367188 113.785156 1381.515625 122.636719 1381.515625 133.542969 C 1381.515625 144.445312 1390.367188 153.296875 1401.269531 153.296875 Z M 1401.269531 151.71875 C 1391.238281 151.71875 1383.09375 143.570312 1383.09375 133.542969 C 1383.09375 123.511719 1391.238281 115.363281 1401.269531 115.363281 C 1411.300781 115.363281 1419.445312 123.511719 1419.445312 133.542969 C 1419.445312 143.570312 1411.300781 151.71875 1401.269531 151.71875 Z M 1401.269531 151.71875 " fill-opacity="1" fill-rule="evenodd"/><path fill="#fb6444" d="M 1401.269531 210.195312 C 1412.175781 210.195312 1421.027344 201.34375 1421.027344 190.441406 C 1421.027344 179.535156 1412.175781 170.683594 1401.269531 170.683594 C 1390.367188 170.683594 1381.515625 179.535156 1381.515625 190.441406 C 1381.515625 201.34375 1390.367188 210.195312 1401.269531 210.195312 Z M 1401.269531 208.617188 C 1391.238281 208.617188 1383.09375 200.46875 1383.09375 190.441406 C 1383.09375 180.410156 1391.238281 172.261719 1401.269531 172.261719 C 1411.300781 172.261719 1419.445312 180.410156 1419.445312 190.441406 C 1419.445312 200.46875 1411.300781 208.617188 1401.269531 208.617188 Z M 1401.269531 208.617188 " fill-opacity="1" fill-rule="evenodd"/><path fill="#fb6444" d="M 1401.269531 143.816406 C 1406.941406 143.816406 1411.542969 139.210938 1411.542969 133.542969 C 1411.542969 127.871094 1406.941406 123.269531 1401.269531 123.269531 C 1395.601562 123.269531 1390.996094 127.871094 1390.996094 133.542969 C 1390.996094 139.210938 1395.601562 143.816406 1401.269531 143.816406 Z M 1401.269531 142.234375 C 1396.472656 142.234375 1392.578125 138.339844 1392.578125 133.542969 C 1392.578125 128.742188 1396.472656 124.847656 1401.269531 124.847656 C 1406.066406 124.847656 1409.964844 128.742188 1409.964844 133.542969 C 1409.964844 138.339844 1406.066406 142.234375 1401.269531 142.234375 Z M 1401.269531 142.234375 " fill-opacity="1" fill-rule="evenodd"/><path fill="#fb6444" d="M 1401.269531 200.714844 C 1406.941406 200.714844 1411.542969 196.109375 1411.542969 190.441406 C 1411.542969 184.769531 1406.941406 180.167969 1401.269531 180.167969 C 1395.601562 180.167969 1390.996094 184.769531 1390.996094 190.441406 C 1390.996094 196.109375 1395.601562 200.714844 1401.269531 200.714844 Z M 1401.269531 199.132812 C 1396.472656 199.132812 1392.578125 195.238281 1392.578125 190.441406 C 1392.578125 185.640625 1396.472656 181.746094 1401.269531 181.746094 C 1406.066406 181.746094 1409.964844 185.640625 1409.964844 190.441406 C 1409.964844 195.238281 1406.066406 199.132812 1401.269531 199.132812 Z M 1401.269531 199.132812 " fill-opacity="1" fill-rule="evenodd"/><path fill="#fb6444" d="M 1306.4375 48.984375 C 1312.109375 48.984375 1316.710938 44.378906 1316.710938 38.710938 C 1316.710938 33.039062 1312.109375 28.4375 1306.4375 28.4375 C 1300.769531 28.4375 1296.164062 33.039062 1296.164062 38.710938 C 1296.164062 44.378906 1300.769531 48.984375 1306.4375 48.984375 Z M 1306.4375 47.402344 C 1301.640625 47.402344 1297.746094 43.507812 1297.746094 38.710938 C 1297.746094 33.914062 1301.640625 30.019531 1306.4375 30.019531 C 1311.238281 30.019531 1315.132812 33.914062 1315.132812 38.710938 C 1315.132812 43.507812 1311.238281 47.402344 1306.4375 47.402344 Z M 1306.4375 47.402344 " fill-opacity="1" fill-rule="evenodd"/><path fill="#fb6444" d="M 1249.539062 48.984375 C 1255.210938 48.984375 1259.8125 44.378906 1259.8125 38.710938 C 1259.8125 33.039062 1255.210938 28.4375 1249.539062 28.4375 C 1243.871094 28.4375 1239.265625 33.039062 1239.265625 38.710938 C 1239.265625 44.378906 1243.871094 48.984375 1249.539062 48.984375 Z M 1249.539062 47.402344 C 1244.742188 47.402344 1240.847656 43.507812 1240.847656 38.710938 C 1240.847656 33.914062 1244.742188 30.019531 1249.539062 30.019531 C 1254.339844 30.019531 1258.234375 33.914062 1258.234375 38.710938 C 1258.234375 43.507812 1254.339844 47.402344 1249.539062 47.402344 Z M 1249.539062 47.402344 " fill-opacity="1" fill-rule="evenodd"/><path fill="#fb6444" d="M 1306.441406 58.464844 C 1317.34375 58.464844 1326.195312 49.613281 1326.195312 38.710938 C 1326.195312 27.808594 1317.34375 18.953125 1306.441406 18.953125 C 1295.535156 18.953125 1286.683594 27.808594 1286.683594 38.710938 C 1286.683594 49.613281 1295.535156 58.464844 1306.441406 58.464844 Z M 1306.441406 56.886719 C 1296.410156 56.886719 1288.265625 48.742188 1288.265625 38.710938 C 1288.265625 28.679688 1296.410156 20.535156 1306.441406 20.535156 C 1316.472656 20.535156 1324.617188 28.679688 1324.617188 38.710938 C 1324.617188 48.742188 1316.472656 56.886719 1306.441406 56.886719 Z M 1306.441406 56.886719 " fill-opacity="1" fill-rule="evenodd"/><path fill="#fb6444" d="M 1249.542969 58.464844 C 1260.445312 58.464844 1269.296875 49.613281 1269.296875 38.710938 C 1269.296875 27.808594 1260.445312 18.953125 1249.542969 18.953125 C 1238.636719 18.953125 1229.785156 27.808594 1229.785156 38.710938 C 1229.785156 49.613281 1238.636719 58.464844 1249.542969 58.464844 Z M 1249.542969 56.886719 C 1239.511719 56.886719 1231.367188 48.742188 1231.367188 38.710938 C 1231.367188 28.679688 1239.511719 20.535156 1249.542969 20.535156 C 1259.574219 20.535156 1267.71875 28.679688 1267.71875 38.710938 C 1267.71875 48.742188 1259.574219 56.886719 1249.542969 56.886719 Z M 1249.542969 56.886719 " fill-opacity="1" fill-rule="evenodd"/><g clip-path="url(#3574f85fd0)"><path fill="#fb6444" d="M 323.203125 18.972656 L 19.746094 18.972656 C 19.308594 18.972656 18.953125 19.328125 18.953125 19.761719 L 18.953125 323.222656 C 18.953125 323.660156 19.308594 324.011719 19.746094 324.011719 C 20.179688 324.011719 20.535156 323.660156 20.535156 323.222656 L 20.535156 20.554688 C 20.535156 20.554688 323.203125 20.554688 323.203125 20.554688 C 323.640625 20.554688 323.992188 20.199219 323.992188 19.761719 C 323.992188 19.328125 323.640625 18.972656 323.203125 18.972656 Z M 323.203125 18.972656 " fill-opacity="1" fill-rule="evenodd"/></g><g clip-path="url(#d0fabc1557)"><path fill="#fb6444" d="M 323.203125 37.9375 L 76.660156 37.9375 C 76.222656 37.9375 75.871094 38.292969 75.871094 38.730469 C 75.871094 38.730469 75.871094 70.445312 75.871094 75.890625 C 75.871094 75.890625 38.710938 75.890625 38.710938 75.890625 C 38.273438 75.890625 37.921875 76.242188 37.921875 76.679688 L 37.921875 323.222656 C 37.921875 323.660156 38.273438 324.011719 38.710938 324.011719 C 39.148438 324.011719 39.5 323.660156 39.5 323.222656 L 39.5 77.46875 C 44.945312 77.46875 76.660156 77.46875 76.660156 77.46875 C 77.097656 77.46875 77.449219 77.117188 77.449219 76.679688 L 77.449219 39.519531 C 155.269531 39.519531 323.203125 39.519531 323.203125 39.519531 C 323.640625 39.519531 323.992188 39.164062 323.992188 38.730469 C 323.992188 38.292969 323.640625 37.9375 323.203125 37.9375 Z M 323.203125 37.9375 " fill-opacity="1" fill-rule="evenodd"/></g><g clip-path="url(#99279431ef)"><path fill="#fb6444" d="M 323.203125 56.90625 L 113.871094 56.90625 C 113.660156 56.90625 113.457031 56.988281 113.308594 57.136719 L 57.117188 113.328125 C 56.96875 113.476562 56.886719 113.679688 56.886719 113.886719 L 56.886719 323.222656 C 56.886719 323.660156 57.242188 324.011719 57.675781 324.011719 C 58.113281 324.011719 58.46875 323.660156 58.46875 323.222656 L 58.46875 114.214844 C 58.46875 114.214844 114.195312 58.484375 114.195312 58.484375 C 192.164062 58.484375 323.203125 58.484375 323.203125 58.484375 C 323.640625 58.484375 323.992188 58.132812 323.992188 57.695312 C 323.992188 57.257812 323.640625 56.90625 323.203125 56.90625 Z M 323.203125 56.90625 " fill-opacity="1" fill-rule="evenodd"/></g><path fill="#fb6444" d="M 67.160156 67.96875 C 67.59375 67.96875 67.949219 67.613281 67.949219 67.179688 L 67.949219 29.246094 C 67.949219 28.808594 67.59375 28.453125 67.160156 28.453125 L 29.226562 28.453125 C 28.789062 28.453125 28.4375 28.808594 28.4375 29.246094 L 28.4375 67.179688 C 28.4375 67.613281 28.789062 67.96875 29.226562 67.96875 Z M 66.367188 66.386719 L 30.019531 66.386719 C 30.019531 66.386719 30.019531 30.035156 30.019531 30.035156 C 30.019531 30.035156 66.367188 30.035156 66.367188 30.035156 Z M 66.367188 66.386719 " fill-opacity="1" fill-rule="evenodd"/><path fill="#fb6444" d="M 48.191406 49.003906 C 48.628906 49.003906 48.984375 48.648438 48.984375 48.210938 L 48.984375 10.28125 C 48.984375 9.84375 48.628906 9.488281 48.191406 9.488281 L 10.261719 9.488281 C 9.824219 9.488281 9.46875 9.84375 9.46875 10.28125 L 9.46875 48.210938 C 9.46875 48.648438 9.824219 49.003906 10.261719 49.003906 Z M 47.402344 47.421875 L 11.050781 47.421875 C 11.050781 47.421875 11.050781 16.445312 11.050781 11.070312 C 11.050781 11.070312 42.027344 11.070312 47.402344 11.070312 Z M 47.402344 47.421875 " fill-opacity="1" fill-rule="evenodd"/><path fill="#fb6444" d="M 38.710938 39.519531 C 39.144531 39.519531 39.5 39.164062 39.5 38.730469 L 39.5 0.796875 C 39.5 0.359375 39.144531 0.00390625 38.710938 0.00390625 L 0.777344 0.00390625 C 0.339844 0.00390625 -0.0117188 0.359375 -0.0117188 0.796875 L -0.0117188 38.730469 C -0.0117188 39.164062 0.339844 39.519531 0.777344 39.519531 Z M 37.917969 37.9375 L 1.570312 37.9375 C 1.570312 37.9375 1.570312 1.585938 1.570312 1.585938 C 1.570312 1.585938 37.917969 1.585938 37.917969 1.585938 Z M 37.917969 37.9375 " fill-opacity="1" fill-rule="evenodd"/><path fill="#fb6444" d="M 57.675781 58.484375 C 58.113281 58.484375 58.46875 58.132812 58.46875 57.695312 L 58.46875 38.730469 C 58.46875 38.292969 58.113281 37.9375 57.675781 37.9375 L 38.710938 37.9375 C 38.273438 37.9375 37.917969 38.292969 37.917969 38.730469 L 37.917969 57.695312 C 37.917969 58.132812 38.273438 58.484375 38.710938 58.484375 Z M 56.886719 56.90625 L 39.5 56.90625 C 39.5 56.90625 39.5 39.519531 39.5 39.519531 C 39.5 39.519531 56.886719 39.519531 56.886719 39.519531 C 56.886719 39.519531 56.886719 56.90625 56.886719 56.90625 Z M 56.886719 56.90625 " fill-opacity="1" fill-rule="evenodd"/><path fill="#fb6444" d="M 38.710938 39.519531 C 39.144531 39.519531 39.5 39.164062 39.5 38.730469 L 39.5 19.761719 C 39.5 19.328125 39.144531 18.972656 38.710938 18.972656 L 19.742188 18.972656 C 19.308594 18.972656 18.953125 19.328125 18.953125 19.761719 L 18.953125 38.730469 C 18.953125 39.164062 19.308594 39.519531 19.742188 39.519531 Z M 37.917969 37.9375 L 20.535156 37.9375 C 20.535156 37.9375 20.535156 20.554688 20.535156 20.554688 C 20.535156 20.554688 37.917969 20.554688 37.917969 20.554688 C 37.917969 20.554688 37.917969 37.9375 37.917969 37.9375 Z M 37.917969 37.9375 " fill-opacity="1" fill-rule="evenodd"/><path fill="#fb6444" d="M 153.296875 38.730469 C 153.296875 27.824219 144.445312 18.972656 133.542969 18.972656 C 122.636719 18.972656 113.785156 27.824219 113.785156 38.730469 C 113.785156 49.632812 122.636719 58.484375 133.542969 58.484375 C 144.445312 58.484375 153.296875 49.632812 153.296875 38.730469 Z M 151.71875 38.730469 C 151.71875 48.761719 143.570312 56.90625 133.542969 56.90625 C 123.511719 56.90625 115.363281 48.761719 115.363281 38.730469 C 115.363281 28.695312 123.511719 20.554688 133.542969 20.554688 C 143.570312 20.554688 151.71875 28.695312 151.71875 38.730469 Z M 151.71875 38.730469 " fill-opacity="1" fill-rule="evenodd"/><path fill="#fb6444" d="M 210.195312 38.730469 C 210.195312 27.824219 201.34375 18.972656 190.441406 18.972656 C 179.535156 18.972656 170.683594 27.824219 170.683594 38.730469 C 170.683594 49.632812 179.535156 58.484375 190.441406 58.484375 C 201.34375 58.484375 210.195312 49.632812 210.195312 38.730469 Z M 208.617188 38.730469 C 208.617188 48.761719 200.46875 56.90625 190.441406 56.90625 C 180.410156 56.90625 172.261719 48.761719 172.261719 38.730469 C 172.261719 28.695312 180.410156 20.554688 190.441406 20.554688 C 200.46875 20.554688 208.617188 28.695312 208.617188 38.730469 Z M 208.617188 38.730469 " fill-opacity="1" fill-rule="evenodd"/><path fill="#fb6444" d="M 143.816406 38.730469 C 143.816406 33.058594 139.210938 28.457031 133.542969 28.457031 C 127.871094 28.457031 123.269531 33.058594 123.269531 38.730469 C 123.269531 44.398438 127.871094 49.003906 133.542969 49.003906 C 139.210938 49.003906 143.816406 44.398438 143.816406 38.730469 Z M 142.234375 38.730469 C 142.234375 43.527344 138.339844 47.421875 133.542969 47.421875 C 128.742188 47.421875 124.847656 43.527344 124.847656 38.730469 C 124.847656 33.933594 128.742188 30.035156 133.542969 30.035156 C 138.339844 30.035156 142.234375 33.933594 142.234375 38.730469 Z M 142.234375 38.730469 " fill-opacity="1" fill-rule="evenodd"/><path fill="#fb6444" d="M 200.714844 38.730469 C 200.714844 33.058594 196.109375 28.457031 190.441406 28.457031 C 184.769531 28.457031 180.167969 33.058594 180.167969 38.730469 C 180.167969 44.398438 184.769531 49.003906 190.441406 49.003906 C 196.109375 49.003906 200.714844 44.398438 200.714844 38.730469 Z M 199.132812 38.730469 C 199.132812 43.527344 195.238281 47.421875 190.441406 47.421875 C 185.640625 47.421875 181.746094 43.527344 181.746094 38.730469 C 181.746094 33.933594 185.640625 30.035156 190.441406 30.035156 C 195.238281 30.035156 199.132812 33.933594 199.132812 38.730469 Z M 199.132812 38.730469 " fill-opacity="1" fill-rule="evenodd"/><path fill="#fb6444" d="M 48.984375 133.5625 C 48.984375 127.890625 44.378906 123.289062 38.710938 123.289062 C 33.039062 123.289062 28.4375 127.890625 28.4375 133.5625 C 28.4375 139.230469 33.039062 143.835938 38.710938 143.835938 C 44.378906 143.835938 48.984375 139.230469 48.984375 133.5625 Z M 47.402344 133.5625 C 47.402344 138.359375 43.507812 142.253906 38.710938 142.253906 C 33.914062 142.253906 30.019531 138.359375 30.019531 133.5625 C 30.019531 128.761719 33.914062 124.867188 38.710938 124.867188 C 43.507812 124.867188 47.402344 128.761719 47.402344 133.5625 Z M 47.402344 133.5625 " fill-opacity="1" fill-rule="evenodd"/><path fill="#fb6444" d="M 48.984375 190.460938 C 48.984375 184.789062 44.378906 180.1875 38.710938 180.1875 C 33.039062 180.1875 28.4375 184.789062 28.4375 190.460938 C 28.4375 196.128906 33.039062 200.734375 38.710938 200.734375 C 44.378906 200.734375 48.984375 196.128906 48.984375 190.460938 Z M 47.402344 190.460938 C 47.402344 195.257812 43.507812 199.152344 38.710938 199.152344 C 33.914062 199.152344 30.019531 195.257812 30.019531 190.460938 C 30.019531 185.660156 33.914062 181.765625 38.710938 181.765625 C 43.507812 181.765625 47.402344 185.660156 47.402344 190.460938 Z M 47.402344 190.460938 " fill-opacity="1" fill-rule="evenodd"/><path fill="#fb6444" d="M 58.464844 133.558594 C 58.464844 122.65625 49.613281 113.804688 38.710938 113.804688 C 27.808594 113.804688 18.953125 122.65625 18.953125 133.558594 C 18.953125 144.464844 27.808594 153.316406 38.710938 153.316406 C 49.613281 153.316406 58.464844 144.464844 58.464844 133.558594 Z M 56.886719 133.558594 C 56.886719 143.589844 48.742188 151.734375 38.710938 151.734375 C 28.679688 151.734375 20.535156 143.589844 20.535156 133.558594 C 20.535156 123.527344 28.679688 115.382812 38.710938 115.382812 C 48.742188 115.382812 56.886719 123.527344 56.886719 133.558594 Z M 56.886719 133.558594 " fill-opacity="1" fill-rule="evenodd"/><path fill="#fb6444" d="M 58.464844 190.457031 C 58.464844 179.554688 49.613281 170.703125 38.710938 170.703125 C 27.808594 170.703125 18.953125 179.554688 18.953125 190.457031 C 18.953125 201.363281 27.808594 210.214844 38.710938 210.214844 C 49.613281 210.214844 58.464844 201.363281 58.464844 190.457031 Z M 56.886719 190.457031 C 56.886719 200.488281 48.742188 208.632812 38.710938 208.632812 C 28.679688 208.632812 20.535156 200.488281 20.535156 190.457031 C 20.535156 180.425781 28.679688 172.28125 38.710938 172.28125 C 48.742188 172.28125 56.886719 180.425781 56.886719 190.457031 Z M 56.886719 190.457031 " fill-opacity="1" fill-rule="evenodd"/><g clip-path="url(#fbf48d001f)"><path fill="#ff5757" d="M 887.351562 134.847656 L 772.90625 44.191406 L 677.253906 44.191406 L 791.699219 134.847656 Z M 887.351562 134.847656 " fill-opacity="1" fill-rule="nonzero"/></g><g clip-path="url(#2f87c7f19d)"><path fill="#ff5757" d="M 564.964844 136.261719 C 564.550781 136.261719 564.136719 136.082031 563.851562 135.726562 C 563.363281 135.113281 563.46875 134.226562 564.078125 133.742188 L 678.523438 43.089844 C 679.136719 42.601562 680.03125 42.707031 680.511719 43.3125 C 680.996094 43.929688 680.894531 44.8125 680.285156 45.296875 L 565.84375 135.953125 C 565.585938 136.164062 565.273438 136.261719 564.964844 136.261719 Z M 564.964844 136.261719 " fill-opacity="1" fill-rule="nonzero"/></g><path fill="#ff5757" d="M 654.0625 112.546875 L 672.980469 112.546875 L 672.980469 131.421875 L 654.0625 131.421875 Z M 654.0625 112.546875 " fill-opacity="1" fill-rule="nonzero"/><path fill="#ff5757" d="M 681.527344 112.546875 L 700.445312 112.546875 L 700.445312 131.421875 L 681.527344 131.421875 Z M 681.527344 112.546875 " fill-opacity="1" fill-rule="nonzero"/><path fill="#ff5757" d="M 654.0625 86.378906 L 672.980469 86.378906 L 672.980469 105.257812 L 654.0625 105.257812 Z M 654.0625 86.378906 " fill-opacity="1" fill-rule="nonzero"/><path fill="#ff5757" d="M 681.527344 86.378906 L 700.445312 86.378906 L 700.445312 105.257812 L 681.527344 105.257812 Z M 681.527344 86.378906 " fill-opacity="1" fill-rule="nonzero"/><path fill="#ff5757" d="M 626.46875 86.378906 L 607.550781 100.707031 L 607.550781 57.484375 L 626.46875 57.484375 Z M 626.46875 86.378906 " fill-opacity="1" fill-rule="nonzero"/><path stroke-linecap="round" transform="matrix(0.749522, 0, 0, 0.75, 556.379978, 282.638327)" fill="none" stroke-linejoin="miter" d="M 1.999845 1.997856 L 439.294199 1.997856 " stroke="#ff5757" stroke-width="4" stroke-opacity="1" stroke-miterlimit="4"/><g fill="#ff5757" fill-opacity="1"><g transform="translate(596.064166, 257.270397)"><g><path d="M 32.253906 -17.667969 C 32.253906 -14.996094 30.816406 -13.558594 28.144531 -13.558594 L 22.804688 -13.558594 C 20.132812 -13.558594 18.695312 -14.996094 18.695312 -17.667969 L 18.695312 -25.472656 C 18.695312 -26.5 18.078125 -27.117188 17.050781 -27.117188 L 6.78125 -27.117188 C 5.648438 -27.117188 5.136719 -26.5 5.136719 -25.472656 L 5.136719 -14.792969 C 5.136719 -5.136719 10.273438 0 19.925781 0 L 31.433594 0 C 40.984375 0 46.222656 -5.136719 46.222656 -14.792969 L 46.222656 -80.53125 C 46.222656 -81.558594 45.609375 -82.175781 44.582031 -82.175781 L 33.898438 -82.175781 C 32.769531 -82.175781 32.253906 -81.558594 32.253906 -80.53125 Z M 32.253906 -17.667969 "/></g></g></g><g fill="#ff5757" fill-opacity="1"><g transform="translate(655.741903, 257.270397)"><g><path d="M 5.136719 -1.644531 C 5.136719 -0.511719 5.648438 0 6.78125 0 L 31.433594 0 C 41.089844 0 46.222656 -5.136719 46.222656 -14.792969 L 46.222656 -67.28125 C 46.222656 -76.9375 41.089844 -82.175781 31.433594 -82.175781 L 6.78125 -82.175781 C 5.648438 -82.175781 5.136719 -81.558594 5.136719 -80.53125 Z M 19.105469 -13.558594 L 19.105469 -68.617188 L 28.554688 -68.617188 C 31.226562 -68.617188 32.664062 -67.179688 32.664062 -64.40625 L 32.664062 -17.667969 C 32.664062 -14.894531 31.226562 -13.558594 28.554688 -13.558594 Z M 19.105469 -13.558594 "/></g></g></g><g fill="#ff5757" fill-opacity="1"><g transform="translate(715.41964, 257.270397)"><g><path d="M 48.074219 -82.175781 C 46.839844 -82.175781 46.121094 -81.558594 45.8125 -80.328125 L 34.410156 -29.171875 L 23.007812 -80.328125 C 22.699219 -81.558594 21.980469 -82.175781 20.75 -82.175781 L 7.191406 -82.175781 C 5.855469 -82.175781 5.136719 -81.457031 5.136719 -80.121094 L 5.136719 -2.054688 C 5.136719 -0.71875 5.855469 0 7.191406 0 L 16.640625 0 C 17.976562 0 18.695312 -0.71875 18.695312 -2.054688 L 18.695312 -48.277344 L 19.414062 -48.277344 L 29.582031 -1.847656 C 29.890625 -0.617188 30.609375 0 31.84375 0 L 36.875 0 C 38.109375 0 38.828125 -0.617188 39.136719 -1.847656 L 49.304688 -48.277344 L 50.023438 -48.277344 L 50.023438 -2.054688 C 50.023438 -0.71875 50.742188 0 52.078125 0 L 61.632812 0 C 62.96875 0 63.6875 -0.71875 63.6875 -2.054688 L 63.6875 -80.121094 C 63.6875 -81.457031 62.96875 -82.175781 61.632812 -82.175781 Z M 48.074219 -82.175781 "/></g></g></g><g fill="#ff5757" fill-opacity="1"><g transform="translate(792.558892, 257.270397)"><g><path d="M 32.253906 -17.667969 C 32.253906 -14.996094 30.816406 -13.558594 28.144531 -13.558594 L 22.804688 -13.558594 C 20.132812 -13.558594 18.695312 -14.996094 18.695312 -17.667969 L 18.695312 -25.472656 C 18.695312 -26.5 18.078125 -27.117188 17.050781 -27.117188 L 6.78125 -27.117188 C 5.648438 -27.117188 5.136719 -26.5 5.136719 -25.472656 L 5.136719 -14.792969 C 5.136719 -5.136719 10.273438 0 19.925781 0 L 31.433594 0 C 40.984375 0 46.222656 -5.136719 46.222656 -14.792969 L 46.222656 -80.53125 C 46.222656 -81.558594 45.609375 -82.175781 44.582031 -82.175781 L 33.898438 -82.175781 C 32.769531 -82.175781 32.253906 -81.558594 32.253906 -80.53125 Z M 32.253906 -17.667969 "/></g></g></g><g fill="#ff5757" fill-opacity="1"><g transform="translate(588.426896, 328.402322)"><g><path d="M 8.507812 -5.425781 C 9.71875 -6 10.472656 -7.179688 10.472656 -8.820312 C 10.472656 -11.410156 8.851562 -12.507812 6.507812 -12.507812 L 1.113281 -12.507812 L 1.113281 0 L 3.476562 0 L 3.476562 -5 L 6.261719 -5 L 8.246094 0 L 10.753906 0 Z M 6.179688 -10.394531 C 7.425781 -10.394531 8.128906 -9.800781 8.128906 -8.738281 C 8.128906 -7.640625 7.441406 -7.066406 6.179688 -7.066406 L 3.476562 -7.066406 L 3.476562 -10.394531 Z M 6.179688 -10.394531 "/></g></g></g><g fill="#ff5757" fill-opacity="1"><g transform="translate(607.917233, 328.402322)"><g><path d="M 9.457031 0 L 9.457031 -2.113281 L 3.476562 -2.113281 L 3.476562 -5.210938 L 8.835938 -5.210938 L 8.835938 -7.3125 L 3.476562 -7.3125 L 3.476562 -10.394531 L 9.457031 -10.394531 L 9.457031 -12.507812 L 1.113281 -12.507812 L 1.113281 0 Z M 9.457031 0 "/></g></g></g><g fill="#ff5757" fill-opacity="1"><g transform="translate(626.292913, 328.402322)"><g><path d="M 2.589844 0 L 3.425781 -2.574219 L 8.195312 -2.574219 L 9.046875 0 L 11.523438 0 L 7.113281 -12.507812 L 4.523438 -12.507812 L 0.113281 0 Z M 5.820312 -9.933594 L 7.539062 -4.640625 L 4.097656 -4.640625 Z M 5.820312 -9.933594 "/></g></g></g><g fill="#ff5757" fill-opacity="1"><g transform="translate(646.127505, 328.402322)"><g><path d="M 8.769531 0 L 8.769531 -2.113281 L 3.476562 -2.113281 L 3.476562 -12.507812 L 1.113281 -12.507812 L 1.113281 0 Z M 8.769531 0 "/></g></g></g><g fill="#ff5757" fill-opacity="1"><g transform="translate(663.273761, 328.402322)"><g/></g></g><g fill="#ff5757" fill-opacity="1"><g transform="translate(675.862958, 328.402322)"><g><path d="M 9.457031 0 L 9.457031 -2.113281 L 3.476562 -2.113281 L 3.476562 -5.210938 L 8.835938 -5.210938 L 8.835938 -7.3125 L 3.476562 -7.3125 L 3.476562 -10.394531 L 9.457031 -10.394531 L 9.457031 -12.507812 L 1.113281 -12.507812 L 1.113281 0 Z M 9.457031 0 "/></g></g></g><g fill="#ff5757" fill-opacity="1"><g transform="translate(694.238638, 328.402322)"><g><path d="M 6.082031 0.230469 C 9.03125 0.230469 10.753906 -1.261719 10.753906 -3.621094 C 10.753906 -6.457031 8.277344 -7.015625 6.195312 -7.476562 C 4.671875 -7.820312 3.328125 -8.113281 3.328125 -9.261719 C 3.328125 -10.210938 4.179688 -10.71875 5.359375 -10.71875 C 6.640625 -10.71875 7.703125 -10.113281 8.015625 -8.785156 L 10.425781 -8.785156 C 10.03125 -11.492188 7.820312 -12.738281 5.410156 -12.738281 C 2.886719 -12.738281 0.984375 -11.472656 0.984375 -9.066406 C 0.984375 -6.425781 3.3125 -5.917969 5.359375 -5.457031 C 6.949219 -5.113281 8.375 -4.804688 8.375 -3.507812 C 8.375 -2.3125 7.394531 -1.785156 6.097656 -1.785156 C 4.785156 -1.785156 3.425781 -2.277344 3.015625 -4.066406 L 0.574219 -4.066406 C 0.886719 -0.835938 3.671875 0.230469 6.082031 0.230469 Z M 6.082031 0.230469 "/></g></g></g><g fill="#ff5757" fill-opacity="1"><g transform="translate(713.843741, 328.402322)"><g><path d="M 6.34375 0 L 6.34375 -10.394531 L 10.148438 -10.394531 L 10.148438 -12.507812 L 0.164062 -12.507812 L 0.164062 -10.394531 L 3.984375 -10.394531 L 3.984375 0 Z M 6.34375 0 "/></g></g></g><g fill="#ff5757" fill-opacity="1"><g transform="translate(732.366952, 328.402322)"><g><path d="M 2.589844 0 L 3.425781 -2.574219 L 8.195312 -2.574219 L 9.046875 0 L 11.523438 0 L 7.113281 -12.507812 L 4.523438 -12.507812 L 0.113281 0 Z M 5.820312 -9.933594 L 7.539062 -4.640625 L 4.097656 -4.640625 Z M 5.820312 -9.933594 "/></g></g></g><g fill="#ff5757" fill-opacity="1"><g transform="translate(752.201544, 328.402322)"><g><path d="M 6.34375 0 L 6.34375 -10.394531 L 10.148438 -10.394531 L 10.148438 -12.507812 L 0.164062 -12.507812 L 0.164062 -10.394531 L 3.984375 -10.394531 L 3.984375 0 Z M 6.34375 0 "/></g></g></g><g fill="#ff5757" fill-opacity="1"><g transform="translate(770.724755, 328.402322)"><g><path d="M 9.457031 0 L 9.457031 -2.113281 L 3.476562 -2.113281 L 3.476562 -5.210938 L 8.835938 -5.210938 L 8.835938 -7.3125 L 3.476562 -7.3125 L 3.476562 -10.394531 L 9.457031 -10.394531 L 9.457031 -12.507812 L 1.113281 -12.507812 L 1.113281 0 Z M 9.457031 0 "/></g></g></g><g fill="#ff5757" fill-opacity="1"><g transform="translate(789.100435, 328.402322)"><g/></g></g><g fill="#ff5757" fill-opacity="1"><g transform="translate(801.689632, 328.402322)"><g><path d="M 2.589844 0 L 3.425781 -2.574219 L 8.195312 -2.574219 L 9.046875 0 L 11.523438 0 L 7.113281 -12.507812 L 4.523438 -12.507812 L 0.113281 0 Z M 5.820312 -9.933594 L 7.539062 -4.640625 L 4.097656 -4.640625 Z M 5.820312 -9.933594 "/></g></g></g><g fill="#ff5757" fill-opacity="1"><g transform="translate(821.524225, 328.402322)"><g><path d="M 3.476562 0 L 3.476562 -5 L 6.507812 -5 C 8.851562 -5 10.472656 -6.410156 10.472656 -8.820312 C 10.472656 -11.410156 8.851562 -12.507812 6.507812 -12.507812 L 1.113281 -12.507812 L 1.113281 0 Z M 3.476562 -10.394531 L 6.179688 -10.394531 C 7.425781 -10.394531 8.128906 -9.800781 8.128906 -8.738281 C 8.128906 -7.640625 7.441406 -7.066406 6.179688 -7.066406 L 3.476562 -7.066406 Z M 3.476562 -10.394531 "/></g></g></g><g fill="#ff5757" fill-opacity="1"><g transform="translate(840.637542, 328.402322)"><g><path d="M 3.476562 0 L 3.476562 -5 L 6.507812 -5 C 8.851562 -5 10.472656 -6.410156 10.472656 -8.820312 C 10.472656 -11.410156 8.851562 -12.507812 6.507812 -12.507812 L 1.113281 -12.507812 L 1.113281 0 Z M 3.476562 -10.394531 L 6.179688 -10.394531 C 7.425781 -10.394531 8.128906 -9.800781 8.128906 -8.738281 C 8.128906 -7.640625 7.441406 -7.066406 6.179688 -7.066406 L 3.476562 -7.066406 Z M 3.476562 -10.394531 "/></g></g></g></svg>