<svg xmlns="http://www.w3.org/2000/svg" xmlns:xlink="http://www.w3.org/1999/xlink" width="500" zoomAndPan="magnify" viewBox="0 0 375 374.999991" height="500" preserveAspectRatio="xMidYMid meet" version="1.0"><defs><g/><clipPath id="812556485b"><path d="M 167 116 L 264.976562 116 L 264.976562 158.910156 L 167 158.910156 Z M 167 116 " clip-rule="nonzero"/></clipPath><clipPath id="86bb361455"><path d="M 115 115.410156 L 170 115.410156 L 170 158.910156 L 115 158.910156 Z M 115 115.410156 " clip-rule="nonzero"/></clipPath></defs><g clip-path="url(#812556485b)"><path fill="#ff5757" d="M 264.976562 158.234375 L 211.992188 116.175781 L 167.710938 116.175781 L 220.695312 158.234375 Z M 264.976562 158.234375 " fill-opacity="1" fill-rule="nonzero"/></g><g clip-path="url(#86bb361455)"><path fill="#ff5757" d="M 115.722656 158.890625 C 115.53125 158.890625 115.339844 158.808594 115.207031 158.644531 C 114.984375 158.359375 115.03125 157.949219 115.3125 157.722656 L 168.296875 115.664062 C 168.582031 115.4375 168.996094 115.488281 169.21875 115.769531 C 169.441406 116.054688 169.394531 116.464844 169.113281 116.6875 L 116.132812 158.746094 C 116.011719 158.847656 115.867188 158.890625 115.722656 158.890625 Z M 115.722656 158.890625 " fill-opacity="1" fill-rule="nonzero"/></g><path fill="#ff5757" d="M 156.972656 147.886719 L 165.730469 147.886719 L 165.730469 156.644531 L 156.972656 156.644531 Z M 156.972656 147.886719 " fill-opacity="1" fill-rule="nonzero"/><path fill="#ff5757" d="M 169.6875 147.886719 L 178.445312 147.886719 L 178.445312 156.644531 L 169.6875 156.644531 Z M 169.6875 147.886719 " fill-opacity="1" fill-rule="nonzero"/><path fill="#ff5757" d="M 156.972656 135.75 L 165.730469 135.75 L 165.730469 144.507812 L 156.972656 144.507812 Z M 156.972656 135.75 " fill-opacity="1" fill-rule="nonzero"/><path fill="#ff5757" d="M 169.6875 135.75 L 178.445312 135.75 L 178.445312 144.507812 L 169.6875 144.507812 Z M 169.6875 135.75 " fill-opacity="1" fill-rule="nonzero"/><path fill="#ff5757" d="M 144.199219 135.75 L 135.441406 142.394531 L 135.441406 122.34375 L 144.199219 122.34375 Z M 144.199219 135.75 " fill-opacity="1" fill-rule="nonzero"/><g fill="#ff5757" fill-opacity="1"><g transform="translate(121.321763, 208.083164)"><g><path d="M 6.417969 0.523438 C 14.3125 0.523438 18.308594 -3.804688 18.308594 -12.742188 L 18.308594 -33.285156 L 16.121094 -33.285156 L 16.121094 -12.933594 C 16.121094 -5.277344 12.980469 -1.523438 6.65625 -1.523438 C 4.46875 -1.523438 2.472656 -2.140625 0.855469 -2.902344 L 0.523438 -0.761719 C 2.09375 -0.09375 4.328125 0.523438 6.417969 0.523438 Z M 6.417969 0.523438 "/></g></g></g><g fill="#ff5757" fill-opacity="1"><g transform="translate(147.281287, 208.083164)"><g><path d="M 3.804688 0 L 16.929688 0 C 26.152344 0 33.191406 -6.941406 33.191406 -16.640625 C 33.191406 -26.34375 26.152344 -33.285156 16.929688 -33.285156 L 3.804688 -33.285156 Z M 6.039062 -2.09375 L 6.039062 -31.242188 L 16.929688 -31.242188 C 24.820312 -31.242188 30.953125 -25.152344 30.953125 -16.640625 C 30.953125 -8.179688 24.820312 -2.09375 16.929688 -2.09375 Z M 6.039062 -2.09375 "/></g></g></g><g fill="#ff5757" fill-opacity="1"><g transform="translate(186.980758, 208.083164)"><g><path d="M 1.472656 0 L 3.707031 0 L 9.746094 -27.199219 L 10.03125 -27.199219 L 19.921875 -4.613281 L 20.828125 -4.613281 L 30.667969 -27.199219 L 31.003906 -27.199219 L 37.042969 0 L 39.277344 0 L 32 -33.808594 L 31.003906 -33.808594 L 20.542969 -9.652344 L 20.207031 -9.652344 L 9.746094 -33.808594 L 8.75 -33.808594 Z M 1.472656 0 "/></g></g></g><g fill="#ff5757" fill-opacity="1"><g transform="translate(231.577156, 208.083164)"><g><path d="M 6.417969 0.523438 C 14.3125 0.523438 18.308594 -3.804688 18.308594 -12.742188 L 18.308594 -33.285156 L 16.121094 -33.285156 L 16.121094 -12.933594 C 16.121094 -5.277344 12.980469 -1.523438 6.65625 -1.523438 C 4.46875 -1.523438 2.472656 -2.140625 0.855469 -2.902344 L 0.523438 -0.761719 C 2.09375 -0.09375 4.328125 0.523438 6.417969 0.523438 Z M 6.417969 0.523438 "/></g></g></g><g fill="#ff5757" fill-opacity="1"><g transform="translate(126.58653, 247.75072)"><g><path d="M 3.9375 -2.511719 C 4.5 -2.777344 4.847656 -3.324219 4.847656 -4.082031 C 4.847656 -5.28125 4.097656 -5.789062 3.011719 -5.789062 L 0.515625 -5.789062 L 0.515625 0 L 1.609375 0 L 1.609375 -2.316406 L 2.898438 -2.316406 L 3.816406 0 L 4.976562 0 Z M 2.859375 -4.8125 C 3.4375 -4.8125 3.765625 -4.539062 3.765625 -4.042969 C 3.765625 -3.535156 3.445312 -3.269531 2.859375 -3.269531 L 1.609375 -3.269531 L 1.609375 -4.8125 Z M 2.859375 -4.8125 "/></g></g></g><g fill="#ff5757" fill-opacity="1"><g transform="translate(135.609834, 247.75072)"><g><path d="M 4.378906 0 L 4.378906 -0.980469 L 1.609375 -0.980469 L 1.609375 -2.414062 L 4.089844 -2.414062 L 4.089844 -3.382812 L 1.609375 -3.382812 L 1.609375 -4.8125 L 4.378906 -4.8125 L 4.378906 -5.789062 L 0.515625 -5.789062 L 0.515625 0 Z M 4.378906 0 "/></g></g></g><g fill="#ff5757" fill-opacity="1"><g transform="translate(144.117093, 247.75072)"><g><path d="M 1.199219 0 L 1.585938 -1.191406 L 3.792969 -1.191406 L 4.1875 0 L 5.335938 0 L 3.292969 -5.789062 L 2.09375 -5.789062 L 0.0546875 0 Z M 2.695312 -4.597656 L 3.492188 -2.148438 L 1.898438 -2.148438 Z M 2.695312 -4.597656 "/></g></g></g><g fill="#ff5757" fill-opacity="1"><g transform="translate(153.299775, 247.75072)"><g><path d="M 4.058594 0 L 4.058594 -0.980469 L 1.609375 -0.980469 L 1.609375 -5.789062 L 0.515625 -5.789062 L 0.515625 0 Z M 4.058594 0 "/></g></g></g><g fill="#ff5757" fill-opacity="1"><g transform="translate(161.237856, 247.75072)"><g/></g></g><g fill="#ff5757" fill-opacity="1"><g transform="translate(167.066188, 247.75072)"><g><path d="M 4.378906 0 L 4.378906 -0.980469 L 1.609375 -0.980469 L 1.609375 -2.414062 L 4.089844 -2.414062 L 4.089844 -3.382812 L 1.609375 -3.382812 L 1.609375 -4.8125 L 4.378906 -4.8125 L 4.378906 -5.789062 L 0.515625 -5.789062 L 0.515625 0 Z M 4.378906 0 "/></g></g></g><g fill="#ff5757" fill-opacity="1"><g transform="translate(175.573446, 247.75072)"><g><path d="M 2.816406 0.105469 C 4.179688 0.105469 4.976562 -0.585938 4.976562 -1.675781 C 4.976562 -2.988281 3.832031 -3.25 2.867188 -3.460938 C 2.164062 -3.621094 1.539062 -3.757812 1.539062 -4.289062 C 1.539062 -4.726562 1.933594 -4.964844 2.480469 -4.964844 C 3.074219 -4.964844 3.566406 -4.683594 3.710938 -4.066406 L 4.828125 -4.066406 C 4.644531 -5.320312 3.621094 -5.898438 2.503906 -5.898438 C 1.335938 -5.898438 0.457031 -5.3125 0.457031 -4.195312 C 0.457031 -2.976562 1.53125 -2.738281 2.480469 -2.527344 C 3.21875 -2.367188 3.878906 -2.222656 3.878906 -1.625 C 3.878906 -1.070312 3.421875 -0.828125 2.824219 -0.828125 C 2.214844 -0.828125 1.585938 -1.054688 1.394531 -1.882812 L 0.265625 -1.882812 C 0.410156 -0.386719 1.699219 0.105469 2.816406 0.105469 Z M 2.816406 0.105469 "/></g></g></g><g fill="#ff5757" fill-opacity="1"><g transform="translate(184.649883, 247.75072)"><g><path d="M 2.9375 0 L 2.9375 -4.8125 L 4.699219 -4.8125 L 4.699219 -5.789062 L 0.0742188 -5.789062 L 0.0742188 -4.8125 L 1.84375 -4.8125 L 1.84375 0 Z M 2.9375 0 "/></g></g></g><g fill="#ff5757" fill-opacity="1"><g transform="translate(193.225443, 247.75072)"><g><path d="M 1.199219 0 L 1.585938 -1.191406 L 3.792969 -1.191406 L 4.1875 0 L 5.335938 0 L 3.292969 -5.789062 L 2.09375 -5.789062 L 0.0546875 0 Z M 2.695312 -4.597656 L 3.492188 -2.148438 L 1.898438 -2.148438 Z M 2.695312 -4.597656 "/></g></g></g><g fill="#ff5757" fill-opacity="1"><g transform="translate(202.408125, 247.75072)"><g><path d="M 2.9375 0 L 2.9375 -4.8125 L 4.699219 -4.8125 L 4.699219 -5.789062 L 0.0742188 -5.789062 L 0.0742188 -4.8125 L 1.84375 -4.8125 L 1.84375 0 Z M 2.9375 0 "/></g></g></g><g fill="#ff5757" fill-opacity="1"><g transform="translate(210.983685, 247.75072)"><g><path d="M 4.378906 0 L 4.378906 -0.980469 L 1.609375 -0.980469 L 1.609375 -2.414062 L 4.089844 -2.414062 L 4.089844 -3.382812 L 1.609375 -3.382812 L 1.609375 -4.8125 L 4.378906 -4.8125 L 4.378906 -5.789062 L 0.515625 -5.789062 L 0.515625 0 Z M 4.378906 0 "/></g></g></g><g fill="#ff5757" fill-opacity="1"><g transform="translate(219.490944, 247.75072)"><g/></g></g><g fill="#ff5757" fill-opacity="1"><g transform="translate(225.319276, 247.75072)"><g><path d="M 1.199219 0 L 1.585938 -1.191406 L 3.792969 -1.191406 L 4.1875 0 L 5.335938 0 L 3.292969 -5.789062 L 2.09375 -5.789062 L 0.0546875 0 Z M 2.695312 -4.597656 L 3.492188 -2.148438 L 1.898438 -2.148438 Z M 2.695312 -4.597656 "/></g></g></g><g fill="#ff5757" fill-opacity="1"><g transform="translate(234.501958, 247.75072)"><g><path d="M 1.609375 0 L 1.609375 -2.316406 L 3.011719 -2.316406 C 4.097656 -2.316406 4.847656 -2.96875 4.847656 -4.082031 C 4.847656 -5.28125 4.097656 -5.789062 3.011719 -5.789062 L 0.515625 -5.789062 L 0.515625 0 Z M 1.609375 -4.8125 L 2.859375 -4.8125 C 3.4375 -4.8125 3.765625 -4.539062 3.765625 -4.042969 C 3.765625 -3.535156 3.445312 -3.269531 2.859375 -3.269531 L 1.609375 -3.269531 Z M 1.609375 -4.8125 "/></g></g></g><g fill="#ff5757" fill-opacity="1"><g transform="translate(243.350715, 247.75072)"><g><path d="M 1.609375 0 L 1.609375 -2.316406 L 3.011719 -2.316406 C 4.097656 -2.316406 4.847656 -2.96875 4.847656 -4.082031 C 4.847656 -5.28125 4.097656 -5.789062 3.011719 -5.789062 L 0.515625 -5.789062 L 0.515625 0 Z M 1.609375 -4.8125 L 2.859375 -4.8125 C 3.4375 -4.8125 3.765625 -4.539062 3.765625 -4.042969 C 3.765625 -3.535156 3.445312 -3.269531 2.859375 -3.269531 L 1.609375 -3.269531 Z M 1.609375 -4.8125 "/></g></g></g><path stroke-linecap="round" transform="matrix(0.74891, 0, 0, 0.75, 111.749997, 225.452592)" fill="none" stroke-linejoin="miter" d="M 1.001459 1.000711 L 203.300659 1.000711 " stroke="#ff5757" stroke-width="2" stroke-opacity="1" stroke-miterlimit="4"/></svg>